<svg xmlns="http://www.w3.org/2000/svg" viewBox="0 0 100 100"><style>.st0{fill:#f2cb51}.st1{fill:#af8015}</style><path class="st0" d="M85.6 44H14.4V11.4c0-5.4 4.4-9.7 9.7-9.7H76c5.4 0 9.7 4.4 9.7 9.7L85.6 44zM76 98.3H24.1c-5.4 0-9.7-4.4-9.7-9.7V75.4h71.2v13.2c0 5.3-4.4 9.7-9.6 9.7z"/><path class="st1" d="M71.2 19H29c-1.4 0-2.4-1.1-2.4-2.4s1.1-2.4 2.4-2.4h42.2c1.4 0 2.4 1.1 2.4 2.4S72.4 19 71.2 19z"/><path d="M85.1 80.1H14.9c-4.9 0-8.7-4.4-8.7-9.7V48.8c0-5.4 4-9.7 8.7-9.7h70.2c4.9 0 8.7 4.4 8.7 9.7v21.7c0 5.4-3.8 9.6-8.7 9.6z" fill="#e5404f"/><path class="st1" d="M71.2 31.6H29c-1.4 0-2.4-1.1-2.4-2.4 0-1.2 1.1-2.4 2.4-2.4h42.2c1.4 0 2.4 1.1 2.4 2.4-.1 1.3-1.2 2.4-2.4 2.4z"/><path d="M80.4 71.3H19.8c-1.9 0-3.4-1.5-3.4-3.4v-6.2c0-1.9 1.5-3.4 3.4-3.4h60.6c1.9 0 3.4 1.5 3.4 3.4v6.2c-.1 1.9-1.6 3.4-3.4 3.4z" opacity=".5" fill="#fff"/></svg>