<?xml version="1.0" standalone="no"?><!DOCTYPE svg PUBLIC "-//W3C//DTD SVG 1.1//EN" "http://www.w3.org/Graphics/SVG/1.1/DTD/svg11.dtd"><svg t="1677655163042" class="icon" viewBox="0 0 1024 1024" version="1.1" xmlns="http://www.w3.org/2000/svg" p-id="8868" xmlns:xlink="http://www.w3.org/1999/xlink" width="100" height="100"><path d="M0 0h1024v1024H0V0z" fill="#202425" opacity=".01" p-id="8869"></path><path d="M989.866667 512c0 263.918933-213.947733 477.866667-477.866667 477.866667S34.133333 775.918933 34.133333 512 248.081067 34.133333 512 34.133333s477.866667 213.947733 477.866667 477.866667z" fill="#FF7744" p-id="8870"></path><path d="M512 34.133333c176.878933 0 331.298133 96.085333 413.934933 238.933334-82.6368 142.848-237.056 238.933333-413.934933 238.933333S180.701867 415.914667 98.065067 273.066667C180.667733 130.2528 335.121067 34.133333 512 34.133333z" fill="#FFAA44" p-id="8871"></path><path d="M496.605867 305.3568a17.066667 17.066667 0 0 1 30.788266 0L576.853333 408.917333a17.066667 17.066667 0 0 0 13.175467 9.557334l113.800533 15.018666a17.066667 17.066667 0 0 1 9.5232 29.2864l-83.2512 79.018667a17.066667 17.066667 0 0 0-5.051733 15.496533l20.923733 112.8448a17.066667 17.066667 0 0 1-24.917333 18.090667l-100.864-54.715733a17.066667 17.066667 0 0 0-16.315733 0l-100.864 54.715733a17.066667 17.066667 0 0 1-24.917334-18.090667l20.8896-112.8448a17.066667 17.066667 0 0 0-5.0176-15.496533l-83.217066-79.018667a17.066667 17.066667 0 0 1 9.489066-29.2864l113.800534-15.018666a17.066667 17.066667 0 0 0 13.175466-9.557334l49.425067-103.560533z" fill="#FFFFFF" p-id="8872"></path></svg>