<svg xmlns="http://www.w3.org/2000/svg" viewBox="0 0 3600 3600"><path opacity=".2" fill="#757575" d="M2198.2 2127.5v-39.8c0-16.9 13.7-30.5 30.6-30.5 16.9 0 30.6 13.7 30.6 30.5v70.2c0 16.9-13.7 30.5-30.5 30.5H1394c-16.9 0-30.5-13.7-30.5-30.5v-692.3c0-16.9 13.7-30.5 30.5-30.5h834.9c16.9 0 30.5 13.7 30.5 30.5v396.5c0 16.9-13.7 30.5-30.6 30.5-16.9 0-30.5-13.7-30.5-30.5v-366h-773.8v631.3h773.7zm-570.1-325.8c-56.2 0-101.8-45.6-101.8-101.8s45.6-101.8 101.8-101.8c56.2 0 101.8 45.6 101.8 101.8s-45.6 101.8-101.8 101.8zm0-61.1c22.5 0 40.7-18.2 40.7-40.7s-18.2-40.7-40.7-40.7-40.7 18.2-40.7 40.7 18.2 40.7 40.7 40.7zM1526.4 1939c11.3-10.9 29-11.6 41-1.4 67 57.3 135.2 57 199 2.3 8.6-7.4 11-9.5 32.7-28.5 68.1-59.9 103-86.2 147.8-105.4 51.9-22.3 102.9-23.8 153.6-1.5 17.1 7.5 23.4 28.4 13.4 44.2-8.1 12.8-24.4 17.8-38.2 11.4-66.9-30.9-124.3-1.2-236.4 97.3-21.9 19.3-24.3 21.4-33.2 29-87.2 74.7-188.6 73.9-278.2-2.2-13.7-11.7-14.5-32.6-1.5-45.2z"/></svg>