<svg height="55" viewBox="0 0 52 55" width="52" xmlns="http://www.w3.org/2000/svg"><defs><linearGradient gradientUnits="objectBoundingBox" id="b" x1=".5" x2=".5" y1=".974" y2=".023"><stop offset="0" stop-color="#18a5ff"/><stop offset="1" stop-color="#57bdff"/></linearGradient><linearGradient gradientUnits="objectBoundingBox" id="d" x1=".5" x2=".5" y1=".974" y2=".023"><stop offset="0" stop-color="#18a5ff"/><stop offset="1" stop-color="#57bdff"/></linearGradient><linearGradient gradientUnits="objectBoundingBox" id="g" x1=".5" x2=".5" y2="1"><stop offset="0" stop-color="#6dcaff"/><stop offset="1" stop-color="#49abff"/></linearGradient><linearGradient gradientUnits="objectBoundingBox" id="k" x2="1" y1=".5" y2=".5"><stop offset="0" stop-color="#fff"/><stop offset="1" stop-color="#d6dfff"/></linearGradient><filter height="36" id="a" width="60" x="-14" y="22"><feGaussianBlur in="SourceGraphic" result="result1" stdDeviation="5 5"/></filter><filter height="12" id="c" width="20.006" x="6.004" y="-3"><feGaussianBlur in="SourceAlpha" result="shadowBlurInner1" stdDeviation="2.5 2.5"/><feOffset dy="1" in="shadowBlurInner1" result="shadowOffsetInner1"/><feComposite in="shadowOffsetInner1" in2="SourceAlpha" k2="-1" k3="1" operator="arithmetic" result="shadowInnerInner1"/><feColorMatrix in="shadowInnerInner1" result="shadowMatrixInner1" values="0 0 0 0 1 0 0 0 0 1 0 0 0 0 1 0 0 0 0.3 0"/><feGaussianBlur in="SourceAlpha" result="shadowBlurInner2" stdDeviation="1.5 1.5"/><feOffset dy="-1" in="shadowBlurInner2" result="shadowOffsetInner2"/><feComposite in="shadowOffsetInner2" in2="SourceAlpha" k2="-1" k3="1" operator="arithmetic" result="shadowInnerInner2"/><feColorMatrix in="shadowInnerInner2" result="shadowMatrixInner2" values="0 0 0 0 1 0 0 0 0 1 0 0 0 0 1 0 0 0 0.2 0"/><feMerge result="result9"><feMergeNode in="shadowMatrixInner1"/><feMergeNode in="shadowMatrixInner2"/></feMerge></filter><filter height="39.006" id="e" width="38.016" x="-3.008" y="-.003"><feGaussianBlur in="SourceAlpha" result="shadowBlurInner1" stdDeviation="2.5 2.5"/><feOffset dy="1" in="shadowBlurInner1" result="shadowOffsetInner1"/><feComposite in="shadowOffsetInner1" in2="SourceAlpha" k2="-1" k3="1" operator="arithmetic" result="shadowInnerInner1"/><feColorMatrix in="shadowInnerInner1" result="shadowMatrixInner1" values="0 0 0 0 1 0 0 0 0 1 0 0 0 0 1 0 0 0 0.3 0"/><feGaussianBlur in="SourceAlpha" result="shadowBlurInner2" stdDeviation="1.5 1.5"/><feOffset dy="-1" in="shadowBlurInner2" result="shadowOffsetInner2"/><feComposite in="shadowOffsetInner2" in2="SourceAlpha" k2="-1" k3="1" operator="arithmetic" result="shadowInnerInner2"/><feColorMatrix in="shadowInnerInner2" result="shadowMatrixInner2" values="0 0 0 0 1 0 0 0 0 1 0 0 0 0 1 0 0 0 0.2 0"/><feMerge result="result9"><feMergeNode in="shadowMatrixInner1"/><feMergeNode in="shadowMatrixInner2"/></feMerge></filter><filter height="39" id="f" width="37.992" x="-3.008" y="2"><feOffset dy="2" in="SourceAlpha" result="shadowOffsetOuter1"/><feGaussianBlur in="shadowOffsetOuter1" result="shadowBlurOuter1" stdDeviation="2 2"/><feColorMatrix in="shadowBlurOuter1" result="result3" values="0 0 0 0 0 0 0 0 0 0.55910325 0 0 0 0 1 0 0 0 1 0"/></filter><filter height="38" id="h" width="37.008" x="-2.504" y="2.5"><feGaussianBlur in="SourceAlpha" result="shadowBlurInner1" stdDeviation="2 2"/><feOffset dy="1" in="shadowBlurInner1" result="shadowOffsetInner1"/><feComposite in="shadowOffsetInner1" in2="SourceAlpha" k2="-1" k3="1" operator="arithmetic" result="shadowInnerInner1"/><feColorMatrix in="shadowInnerInner1" result="result4" values="0 0 0 0 1 0 0 0 0 1 0 0 0 0 1 0 0 0 0.1 0"/></filter><filter height="28.534" id="i" width="28.99" x="1.492" y="19.974"><feGaussianBlur in="SourceGraphic" result="result1" stdDeviation="0.5 0.5"/></filter><filter height="29.127" id="j" width="19" x="8.864" y="7.841"><feOffset dx="2" dy="3" in="SourceAlpha" result="shadowOffsetOuter1"/><feGaussianBlur in="shadowOffsetOuter1" result="shadowBlurOuter1" stdDeviation="2 2"/><feColorMatrix in="shadowBlurOuter1" result="result3" values="0 0 0 0 0 0 0 0 0 0.61538464 0 0 0 0 1 0 0 0 1 0"/></filter><filter height="24.096" id="l" width="14" x="11.364" y="10.349"><feGaussianBlur in="SourceAlpha" result="shadowBlurInner1" stdDeviation="0.5 0.5"/><feOffset dy="1" in="shadowBlurInner1" result="shadowOffsetInner1"/><feComposite in="shadowOffsetInner1" in2="SourceAlpha" k2="-1" k3="1" operator="arithmetic" result="shadowInnerInner1"/><feColorMatrix in="shadowInnerInner1" result="result4" values="0 0 0 0 1 0 0 0 0 1 0 0 0 0 1 0 0 0 0.5 0"/></filter></defs><path d="M41 40l-.8 1-3.4 1.1-6.7.8-4.1.1-4.1-.1-6.7-.8-2.2-.6-1.8-1v-1l.6-.5 3.4-1.1 6.7-.8L26 37l4.1.1 6.7.8 3.4 1.1.8 1z" fill="#008be3" fill-opacity=".55" fill-rule="evenodd" filter="url(#a)"/><path d="M21.5 0h9l1.5.3.9 1.3v2.8l-.2.6-1.3.9-9.9.1-1.5-.3-.9-1.3V1.6L20 .3l1.5-.3z" fill="url(#b)" fill-rule="evenodd"/><path d="M21.5 0h9l1.5.3.9 1.3v2.8l-.2.6-1.3.9-9.9.1-1.5-.3-.9-1.3V1.6L20 .3l1.5-.3z" fill-rule="evenodd" filter="url(#c)"/><path d="M20.3 3h11.4l4 .3 2.2.8 1.7 1.3 1.8 2.7.5 2.7.1 2.5-.1 14.9-.5 2.7-1.8 2.7-1.7 1.3-2.2.8-4 .3H20.3l-4-.3-2.2-.8-1.7-1.3-1.8-2.7-.5-2.7-.1-2.5.1-14.9.5-2.7 1.8-2.7 1.7-1.3 2.2-.8 4-.3z" fill="url(#d)" fill-rule="evenodd"/><path d="M20.3 3h11.4l4 .3 2.2.8 1.7 1.3 1.8 2.7.5 2.7.1 2.5-.1 14.9-.5 2.7-1.8 2.7-1.7 1.3-2.2.8-4 .3H20.3l-4-.3-2.2-.8-1.7-1.3-1.8-2.7-.5-2.7-.1-2.5.1-14.9.5-2.7 1.8-2.7 1.7-1.3 2.2-.8 4-.3z" fill-rule="evenodd" filter="url(#e)"/><g><path d="M19.1 7l15.7.1 1.2.4L37.5 9l.4 1.2.1 1.9-.1 16.7-1.1 2-2 1.1H17.2l-1.2-.4-1.5-1.5-.4-1.2-.1-1.9.1-16.7.4-1.2L16 7.5l1.2-.4 1.9-.1z" fill-rule="evenodd" filter="url(#f)"/><path d="M19.1 7l15.7.1 1.2.4L37.5 9l.4 1.2.1 1.9-.1 16.7-1.1 2-2 1.1H17.2l-1.2-.4-1.5-1.5-.4-1.2-.1-1.9.1-16.7.4-1.2L16 7.5l1.2-.4 1.9-.1z" fill="url(#g)" fill-rule="evenodd"/><path d="M19.1 7l15.7.1 1.2.4L37.5 9l.4 1.2.1 1.9-.1 16.7-1.1 2-2 1.1H17.2l-1.2-.4-1.5-1.5-.4-1.2-.1-1.9.1-16.7.4-1.2L16 7.5l1.2-.4 1.9-.1z" fill-rule="evenodd" filter="url(#h)"/></g><path d="M15.3 28.8l10.3-7.3 1.3.2 9.8 7.1 1.5 1.3.8 2-.1 11.7-1.1 2-2 1.1-1.9.1H18.1l-1.9-.1-2-1.1-1.1-2-.1-11.7.8-2 1.5-1.3z" fill="#fff" fill-opacity=".2" fill-rule="evenodd" filter="url(#i)"/><g><path d="M31.3 14.4l.6 1.4-.6 1.4-7 7-1.4.3-1.5-.1-.1-2.6.4-.6 6.8-6.8 1.4-.6 1.4.6z" fill-rule="evenodd" filter="url(#j)"/><path d="M31.3 14.4l.6 1.4-.6 1.4-7 7-1.4.3-1.5-.1-.1-2.6.4-.6 6.8-6.8 1.4-.6 1.4.6z" fill="url(#k)" fill-rule="evenodd"/><path d="M31.3 14.4l.6 1.4-.6 1.4-7 7-1.4.3-1.5-.1-.1-2.6.4-.6 6.8-6.8 1.4-.6 1.4.6z" fill-rule="evenodd" filter="url(#l)"/></g><path d="M0-1h52v52H0z" fill="none"/></svg>