<svg xmlns="http://www.w3.org/2000/svg" xmlns:xlink="http://www.w3.org/1999/xlink" viewBox="0 0 500 500"><ellipse opacity=".2" fill="#9DA0AC" cx="250" cy="410" rx="208" ry="19"/><path fill="#4B6FEF" d="M384.3 193.2H380v-4.4h-1.5v4.4h-4.4v1.5h4.4v4.4h1.5v-4.4h4.3v-1.5zm41.6 167.5h-6.6v-6.6h-2.4v6.6h-6.6v2.3h6.6v6.7h2.4V363h6.6v-2.3zm.3-97.8h-3.7v-3.7h-1.4v3.7h-3.8v1.4h3.8v3.7h1.4v-3.7h3.7v-1.4zM270 75.1h-3.8v-3.8h-1.3v3.8h-3.8v1.3h3.8v3.8h1.3v-3.8h3.8v-1.3zm38.9 44.6h-7.5v-7.5h-2.7v7.5h-7.5v2.7h7.5v7.5h2.7v-7.5h7.5v-2.7zM108.5 226.5h-6.6v-6.6h-2.3v6.6H93v2.4h6.6v6.6h2.3v-6.6h6.6v-2.4zm-26.3-58.1h-3.8v-3.8h-1.3v3.8h-3.8v1.3h3.8v3.8h1.3v-3.8h3.8v-1.3zm-4.4 159.2H74v-3.7h-1.4v3.7h-3.7v1.4h3.7v3.8H74V329h3.8v-1.4zm78-237.4h-6.6v-6.6h-2.4v6.6h-6.6v2.4h6.6v6.6h2.4v-6.6h6.6v-2.4z" opacity=".2"/><path fill="#4B6FEF" d="M227.9 73c0 1.2-.9 2.1-2.1 2.1-1.2 0-2.1-.9-2.1-2.1s.9-2.1 2.1-2.1c1.2 0 2.1 1 2.1 2.1zm186.8 153.7c0 2.2-1.8 4-4 4s-4-1.8-4-4 1.8-4 4-4c2.2.1 4 1.9 4 4zM63.6 212c0 1.2-.9 2.1-2.1 2.1-1.2 0-2.1-.9-2.1-2.1 0-1.2.9-2.1 2.1-2.1 1.1 0 2.1.9 2.1 2.1zm128.5-106.5c0 2.2-1.8 4-4 4s-4-1.8-4-4 1.8-4 4-4c2.3.1 4 1.8 4 4zM404 144.4c0 2.2-1.8 4-4 4s-4-1.8-4-4 1.8-4 4-4c2.2.1 4 1.8 4 4zM68.3 108.5c0 1.2-.9 2.1-2.1 2.1s-2.1-.9-2.1-2.1.9-2.1 2.1-2.1 2.1.9 2.1 2.1zm361.1 224.3c0 1.2-.9 2.1-2.1 2.1s-2.1-.9-2.1-2.1.9-2.1 2.1-2.1 2.1.9 2.1 2.1zM324.1 162.6c0 1.2-.9 2.1-2.1 2.1s-2.1-.9-2.1-2.1c0-1.2.9-2.1 2.1-2.1s2.1 1 2.1 2.1zm-156.4 6.5c0 1.2-.9 2.1-2.1 2.1-1.2 0-2.1-.9-2.1-2.1 0-1.2.9-2.1 2.1-2.1 1.1 0 2.1.9 2.1 2.1zM79 379.5c0 2.2-1.8 4-4 4s-4-1.8-4-4 1.8-4 4-4c2.3.1 4 1.8 4 4zm283.1-111.2c0 1.2-.9 2.1-2.1 2.1s-2.1-.9-2.1-2.1.9-2.1 2.1-2.1c1.1 0 2.1.9 2.1 2.1zm9.3-192.5c0 1.2-.9 2.1-2.1 2.1s-2.1-.9-2.1-2.1.9-2.1 2.1-2.1c1.1 0 2.1.9 2.1 2.1zm-280 179.6c0 2.2-1.8 4-4 4s-4-1.8-4-4 1.8-4 4-4 4 1.8 4 4z" opacity=".1"/><path fill="#EB725F" d="M136.5 268.9c-4.2-4.7-17.4 11.1-17.4 11.1s10.3-21.6 6.1-27.5c-4.2-5.9-14.4 11.6-14.4 11.6s3.3-27.8-.9-30.6c-4.1-2.8-7 11.5-7 11.5s-8.9-33.4-15.1-31.6c-6.2 1.9 4.8 34.7 4.8 34.7s-10.3-10.4-12.2-5.8c-1.9 4.6 16.1 26 16.1 26s-18.1-9-18.4-1.7c-.2 7.2 20.3 19.6 20.3 19.6s-19.7-5.8-20.7.4c-.9 6.2 38.2 20.9 38.2 20.9s24.8-33.9 20.6-38.6z"/><path fill="#F9AB43" d="M125.6 281.3l-4.1 6.1c-1.4 2-2.7 4.1-4 6.1l-3.5 5.4-1.8-6.2-3-10c1.4-2.8 2.9-5.5 4.3-8.3l2.1-4.3c.7-1.4 1.4-2.9 2-4.3-.9 1.3-1.7 2.7-2.5 4.1l-2.4 4.1c-1.4 2.4-2.6 4.8-3.9 7.2l-3.6-12.1-2-6.6c.7-2.3 1.5-4.6 2.1-6.9l1-3.6.9-3.6c-.5 1.1-.9 2.3-1.4 3.4l-1.3 3.5c-.6 1.7-1.2 3.5-1.8 5.3L98 245.4c-2.5-7.9-4.9-15.7-7.5-23.5 2.1 7.9 4.4 15.9 6.7 23.8l4.5 15.4c-1.5-1.2-3-2.4-4.6-3.5-2-1.5-4-2.9-6.1-4.3 1.8 1.7 3.7 3.3 5.5 5 1.9 1.6 3.8 3.2 5.7 4.7l1.9 6.4 3.7 12.1c-2.4-1.3-4.9-2.6-7.4-3.8-2.8-1.4-5.7-2.8-8.6-4.2 2.7 1.7 5.4 3.3 8.2 4.9 2.7 1.6 5.5 3.1 8.3 4.6l3 9.9 1.9 6.1-5.9-2.5c-2.3-1-4.5-2-6.8-2.9-4.6-1.9-9.1-3.8-13.7-5.5 4.4 2.2 8.9 4.3 13.4 6.3 2.2 1.1 4.5 2 6.7 3l6.7 3 1.3 4.2c1.3 3.9 2.5 7.8 3.8 11.7-1.1-4-2.2-7.9-3.3-11.9l-1.2-4.2 3.9-6.2c1.3-2.1 2.6-4.1 3.9-6.2l3.8-6.3c1.2-2.1 2.5-4.2 3.7-6.3-1.1 2-2.5 4-3.9 6.1z"/><path fill="#0046A0" d="M102 241.4c-2.5-8.6-9.1-29.4-14.1-27.9-1.9.6-2.2 4.1-1.7 8.7 5.8 4.5 11.2 11.1 15.8 19.2zm9 22.5c4.1 15.9 3.7 31-.6 41.2 3.5 1.4 5.8 2.3 5.8 2.3s24.6-33.8 20.4-38.5-17.4 11.1-17.4 11.1 10.3-21.6 6.1-27.5c-4-5.5-13.2 9.4-14.3 11.4zm-7.7-20.1c2.3 4.4 4.3 9.2 6 14.2.6 1.9 1.2 3.7 1.6 5.6.4-3.6 2.9-27.5-.9-30.1-3.4-2.3-5.9 6.9-6.7 10.3z" opacity=".1"/><path fill="#EB725F" d="M412.4 338.1c1-6.2-19.6-6.6-19.6-6.6s23.2-5.6 25.2-12.6c1.9-6.9-18-3.9-18-3.9s23.6-15 23.2-20-13.4 1.9-13.4 1.9 20.4-28 15-31.6c-5.4-3.7-23.9 25.6-23.9 25.6s1.6-14.5-3.2-13.1-10 28.9-10 28.9-4.5-19.7-10.2-15.3c-5.7 4.4-2.4 28.1-2.4 28.1s-7.9-19-13.3-15.8 7.9 42.8 7.9 42.8 41.7-2.2 42.7-8.4z"/><path fill="#F9AB43" d="M395.9 337.4l-7.3.7c-2.4.2-4.9.5-7.3.7l-6.4.7 3.7-5.3 5.9-8.6c3.1-.6 6.1-1.2 9.1-1.9l4.6-1.1c1.5-.4 3.1-.8 4.6-1.2-1.6.2-3.1.4-4.7.6l-4.7.8c-2.7.4-5.4.9-8 1.5l7.1-10.4 3.8-5.7c2.2-.9 4.5-1.8 6.7-2.7l3.4-1.5c1.1-.5 2.2-1 3.4-1.6-1.2.3-2.4.7-3.6 1.1l-3.5 1.2c-1.8.6-3.5 1.2-5.2 1.9l8.8-13.2c4.5-6.9 9.1-13.7 13.5-20.7-4.8 6.7-9.5 13.4-14.2 20.2l-9.1 13.2c0-1.9-.1-3.9-.2-5.8-.1-2.5-.3-4.9-.5-7.4-.2 2.5-.3 5-.3 7.4-.1 2.5-.1 4.9 0 7.4l-3.8 5.5-7.1 10.5c-.5-2.7-1.1-5.4-1.7-8.1-.7-3.1-1.4-6.2-2.2-9.3.4 3.2.8 6.3 1.3 9.5.5 3.1 1.1 6.2 1.6 9.3l-5.8 8.6-3.5 5.4-1.8-6.2c-.7-2.4-1.3-4.7-2.1-7.1-1.4-4.7-2.8-9.4-4.4-14.1 1.1 4.8 2.3 9.6 3.5 14.4.6 2.4 1.3 4.8 1.9 7.1l1.9 7.1-2.3 3.7c-2.2 3.5-4.5 6.9-6.7 10.4 2.4-3.3 4.8-6.7 7.2-10.1l2.5-3.6 7.3-.9c2.4-.3 4.9-.6 7.3-.9l7.3-1c2.4-.4 4.9-.7 7.3-1.1-2.4.2-4.8.4-7.3.6z"/><path fill="#0046A0" d="M412 293.9c5.1-7.4 17.1-25.6 12.8-28.6-1.7-1.1-4.6.9-7.8 4.2.1 7.4-1.6 15.8-5 24.4zm-11.8 21.2c-9.7 13.2-21.7 22.4-32.4 25.5 1.1 3.6 1.9 5.9 1.9 5.9s41.7-2.2 42.7-8.4-19.6-6.6-19.6-6.6 23.2-5.6 25.2-12.6c1.8-6.5-15.6-4.2-17.8-3.8zm10.7-18.7c-2 4.5-4.4 9.1-7.3 13.6l-3.3 4.8c3-2 23.2-15.1 22.8-19.7-.3-4-9-.2-12.2 1.3z" opacity=".1"/><path fill="#6E7FDD" d="M69.2 269.2c.9 2.7 2.1 5.3 3.3 7.9 3 6.4 6.7 12.6 10.8 18.3 5.6 7.9 12.3 15.1 19.9 21.1 9 7.3 19.4 12.8 30.5 16.3 13.7 4.3 28.2 5.3 42.5 3.9 2.1-.2 4.1-.5 6.2-.8.6-.1.4-1.1-.2-1-14.6 2.1-29.7 1.9-44-1.9-11.3-3-22-8.1-31.4-15.1C98.9 312 92 305 86 297.2c-4.5-5.9-8.4-12.2-11.6-18.9-1.5-3-2.8-6.3-4-9.3v-.1c-.4-.5-1.4-.3-1.2.3z"/><path fill="#6E7FDD" d="M73.5 279.2c-2.3-1.7-3.9-3.7-5.2-5.8-1.3-2.1-2.2-4.2-2.9-6.5-.7-2.2-1.1-4.6-1.3-7-.1-2.4 0-4.9 1-7.7 2.3 1.7 3.9 3.7 5.2 5.8 1.3 2.1 2.2 4.2 2.9 6.5.7 2.3 1.1 4.6 1.2 7s0 4.9-.9 7.7z"/><path fill="#0046A0" d="M65.8 254.5c.7 1.8 1.3 3.6 1.9 5.5.6 1.8 1.2 3.7 1.8 5.5.6 1.9 1.1 3.7 1.7 5.6.5 1.9 1 3.7 1.5 5.6-.7-1.8-1.3-3.6-1.9-5.5-.6-1.8-1.2-3.7-1.8-5.5-.5-1.9-1.1-3.7-1.7-5.6-.5-1.8-1-3.7-1.5-5.6z"/><path opacity=".1" fill="#0046A0" d="M70.3 258c-1.3-2.1-2.8-4.1-5.2-5.8-.1.4-.2.7-.3 1.1 1.4 1.3 2.4 2.8 3.4 4.2 1.3 2.1 2.2 4.2 2.9 6.5.7 2.3 1.1 4.6 1.2 7 .1 2.1 0 4.3-.6 6.6.5.5 1.1 1.1 1.8 1.6.9-2.8 1.1-5.3 1-7.7-.1-2.4-.6-4.8-1.2-7-.8-2.3-1.8-4.4-3-6.5z"/><path fill="#6E7FDD" d="M78 287.1c-1.3-2.6-1.8-5-2.1-7.5-.2-2.4-.2-4.8.2-7.1.3-2.3 1-4.6 1.9-6.9 1-2.2 2.2-4.4 4.2-6.5 1.4 2.6 1.8 5 2.1 7.5.2 2.4.2 4.8-.2 7.1s-1 4.6-1.9 6.9c-1 2.3-2.2 4.5-4.2 6.5z"/><path fill="#0046A0" d="M81.8 261.6c-.2 1.9-.4 3.8-.6 5.8-.2 1.9-.5 3.8-.8 5.7l-.9 5.7c-.3 1.9-.7 3.8-1.1 5.7.2-1.9.4-3.8.6-5.8.2-1.9.5-3.8.8-5.7l.9-5.7c.4-1.9.7-3.8 1.1-5.7z"/><path opacity=".1" fill="#0046A0" d="M84.3 266.6c-.3-2.4-.8-4.9-2.1-7.5l-.8.8c.7 1.8 1 3.6 1.2 5.3.2 2.4.2 4.8-.2 7.1s-1 4.6-1.9 6.9c-.9 1.9-1.9 3.9-3.5 5.7.3.7.6 1.5 1 2.2 2-2.1 3.2-4.3 4.2-6.5.9-2.2 1.6-4.5 1.9-6.9.4-2.3.5-4.6.2-7.1z"/><path fill="#6E7FDD" d="M77.8 286.6c-2.8.9-5.3.9-7.7.8-2.4-.2-4.7-.7-7-1.4-2.2-.8-4.4-1.8-6.4-3.1-2-1.4-4-2.9-5.7-5.3 2.8-.9 5.3-.9 7.7-.8 2.4.2 4.7.7 7 1.4 2.2.8 4.4 1.8 6.4 3.1 2.1 1.4 4 3 5.7 5.3z"/><path fill="#0046A0" d="M53.4 278.3c1.9.5 3.7 1.1 5.6 1.6 1.8.6 3.7 1.2 5.5 1.8 1.8.6 3.7 1.3 5.5 1.9 1.8.7 3.6 1.3 5.4 2.1-1.9-.5-3.7-1.1-5.6-1.6-1.8-.6-3.7-1.2-5.5-1.8-1.8-.6-3.7-1.3-5.5-1.9s-3.7-1.3-5.4-2.1z"/><path opacity=".1" fill="#0046A0" d="M58.8 276.8c-2.4-.2-4.9-.1-7.7.8.2.3.4.6.7.9 1.9-.3 3.7-.3 5.4-.2 2.4.2 4.7.7 7 1.4 2.2.8 4.4 1.8 6.4 3.1 1.8 1.2 3.5 2.5 5 4.4.8-.1 1.5-.3 2.3-.6-1.7-2.4-3.6-3.9-5.7-5.3-2-1.3-4.2-2.4-6.4-3.1-2.3-.8-4.6-1.2-7-1.4z"/><path fill="#6E7FDD" d="M88 300.5c-1.7-2.3-2.6-4.7-3.3-7-.6-2.4-.9-4.7-.9-7.1s.2-4.7.8-7.1c.6-2.4 1.5-4.7 3.2-7.1 1.7 2.3 2.6 4.7 3.3 7 .6 2.4.9 4.7.9 7.1s-.3 4.7-.8 7.1c-.7 2.4-1.5 4.8-3.2 7.1z"/><path fill="#0046A0" d="M87.8 274.7c.1 1.9.2 3.9.3 5.8.1 1.9.1 3.9.1 5.8v5.8c0 1.9-.1 3.9-.2 5.8-.1-1.9-.2-3.9-.3-5.8-.1-1.9-.1-3.9-.1-5.8v-5.8c0-2 .1-3.9.2-5.8z"/><path opacity=".1" fill="#0046A0" d="M91 279.3c-.7-2.4-1.5-4.7-3.3-7l-.6.9c.9 1.7 1.5 3.4 2 5 .6 2.4.9 4.7.9 7.1s-.3 4.7-.8 7.1c-.5 2.1-1.2 4.1-2.5 6.2.4.7.8 1.3 1.3 2 1.7-2.4 2.5-4.7 3.2-7.1.6-2.4.8-4.7.8-7.1-.1-2.4-.4-4.8-1-7.1z"/><path fill="#6E7FDD" d="M87.8 300.1c-2.6 1.3-5.1 1.7-7.5 2-2.4.2-4.8.1-7.1-.3s-4.6-1.1-6.8-2.1-4.4-2.3-6.4-4.4c2.6-1.3 5.1-1.8 7.5-2s4.8-.1 7.1.3 4.6 1.1 6.8 2.1c2.1 1 4.3 2.3 6.4 4.4z"/><path fill="#0046A0" d="M62.3 295.7c1.9.2 3.8.5 5.8.7l5.7.9c1.9.3 3.8.7 5.7 1l5.7 1.2c-1.9-.2-3.8-.5-5.8-.7l-5.7-.9c-1.9-.4-3.8-.7-5.7-1l-5.7-1.2z"/><path opacity=".1" fill="#0046A0" d="M67.4 293.3c-2.4.2-4.9.7-7.5 2l.8.8c1.8-.6 3.6-.9 5.3-1.1 2.4-.2 4.8-.1 7.1.3s4.6 1.1 6.8 2.1c1.9.9 3.8 2 5.6 3.6.7-.2 1.5-.5 2.2-.9-2-2.1-4.2-3.3-6.4-4.4-2.2-1-4.5-1.7-6.8-2.1s-4.7-.5-7.1-.3z"/><path fill="#6E7FDD" d="M100.2 313.3c-2.1-2-3.3-4.2-4.3-6.4s-1.7-4.5-2.1-6.8-.5-4.7-.3-7.1.7-4.9 2-7.5c2.1 2 3.3 4.2 4.4 6.4 1 2.2 1.7 4.5 2 6.8.4 2.3.5 4.7.3 7.1-.2 2.5-.7 4.9-2 7.5z"/><path fill="#0046A0" d="M95.9 287.9l1.2 5.7c.4 1.9.7 3.8 1 5.7l.9 5.7c.3 1.9.5 3.8.7 5.8l-1.2-5.7c-.4-1.9-.7-3.8-1-5.7l-.9-5.7c-.2-2-.5-3.9-.7-5.8z"/><path opacity=".1" fill="#0046A0" d="M99.9 291.9c-1-2.2-2.3-4.4-4.4-6.4-.2.3-.3.7-.5 1 1.2 1.5 2 3.1 2.8 4.7 1 2.2 1.7 4.5 2 6.8.4 2.3.5 4.7.3 7.1-.2 2.1-.6 4.2-1.5 6.5.5.6 1 1.2 1.6 1.8 1.3-2.6 1.7-5.1 2-7.5.2-2.4.1-4.8-.3-7.1-.4-2.4-1-4.7-2-6.9z"/><path fill="#6E7FDD" d="M99.9 312.9c-2.4 1.7-4.7 2.5-7.1 3.1s-4.7.8-7.1.8-4.7-.3-7.1-.9c-2.4-.7-4.7-1.5-7-3.3 2.4-1.7 4.7-2.5 7.1-3.2 2.4-.6 4.7-.8 7.1-.8s4.7.3 7.1 1 4.7 1.6 7 3.3z"/><path fill="#0046A0" d="M74.1 312.7c1.9-.1 3.9-.1 5.8-.2h5.8c1.9 0 3.9.1 5.8.1 1.9.1 3.9.1 5.8.3-1.9.1-3.9.1-5.8.2h-5.8c-1.9 0-3.9-.1-5.8-.1-1.9-.1-3.9-.2-5.8-.3z"/><path opacity=".1" fill="#0046A0" d="M78.8 309.5c-2.4.6-4.7 1.5-7.1 3.2l.9.6c1.7-.9 3.4-1.5 5.1-1.9 2.4-.6 4.7-.8 7.1-.8s4.7.3 7.1 1c2 .6 4.1 1.3 6.1 2.6.7-.4 1.4-.8 2-1.3-2.3-1.7-4.7-2.6-7-3.3-2.4-.6-4.7-.9-7.1-1-2.4 0-4.8.3-7.1.9z"/><g><path fill="#6E7FDD" d="M116 324.5c-2.4-1.6-4.1-3.5-5.5-5.5s-2.5-4.1-3.3-6.3c-.8-2.2-1.4-4.5-1.7-6.9-.2-2.4-.3-4.9.5-7.8 2.4 1.6 4.1 3.5 5.5 5.5s2.5 4.1 3.3 6.3c.8 2.2 1.4 4.5 1.7 6.9.2 2.4.2 5-.5 7.8z"/><path fill="#0046A0" d="M106.9 300.3c.8 1.8 1.5 3.6 2.3 5.3l2.1 5.4c.7 1.8 1.3 3.6 2 5.5.6 1.8 1.3 3.7 1.8 5.5-.8-1.8-1.5-3.6-2.3-5.3l-2.1-5.4c-.7-1.8-1.3-3.6-2-5.5-.6-1.8-1.3-3.7-1.8-5.5z"/><path opacity=".1" fill="#0046A0" d="M111.5 303.5c-1.4-2-3.1-3.9-5.5-5.5-.1.4-.2.7-.3 1.1 1.5 1.3 2.6 2.6 3.6 4 1.4 2 2.5 4.1 3.3 6.3.8 2.2 1.4 4.5 1.7 6.9.2 2.1.2 4.3-.3 6.7.6.5 1.2 1 1.9 1.5.8-2.8.7-5.3.5-7.7-.3-2.4-.8-4.7-1.7-6.9-.7-2.3-1.8-4.4-3.2-6.4z"/><path fill="#6E7FDD" d="M115.6 324.1c-2 2.1-4.2 3.4-6.4 4.4-2.2 1-4.5 1.7-6.8 2.2-2.3.4-4.7.6-7.1.4s-4.9-.6-7.5-1.9c2-2.1 4.2-3.4 6.4-4.5 2.2-1 4.5-1.7 6.8-2.2 2.3-.4 4.7-.6 7.1-.4 2.4.3 4.9.7 7.5 2z"/><path fill="#0046A0" d="M90.2 328.8c1.9-.5 3.8-.9 5.7-1.3 1.9-.4 3.8-.8 5.7-1.1 1.9-.3 3.8-.7 5.7-1 1.9-.3 3.8-.6 5.7-.8-1.9.5-3.8.9-5.7 1.3-1.9.4-3.8.8-5.7 1.1-1.9.3-3.8.7-5.7 1-1.9.3-3.8.6-5.7.8z"/><path opacity=".1" fill="#0046A0" d="M94.2 324.8c-2.2 1.1-4.4 2.3-6.4 4.5.3.2.7.3 1 .5 1.5-1.2 3-2.1 4.6-2.8 2.2-1 4.5-1.7 6.8-2.2 2.3-.4 4.7-.6 7.1-.4 2.1.2 4.3.5 6.5 1.4.6-.5 1.2-1 1.8-1.6-2.6-1.3-5.1-1.7-7.5-1.9-2.4-.2-4.8 0-7.1.4-2.4.4-4.6 1.1-6.8 2.1z"/></g><g><path fill="#6E7FDD" d="M131.1 331.8c-2.5-1.4-4.3-3.2-5.9-5.1-1.5-1.9-2.8-3.9-3.8-6s-1.7-4.4-2.2-6.8c-.4-2.4-.6-4.9-.1-7.8 2.6 1.4 4.3 3.2 5.9 5.1 1.5 1.9 2.8 3.9 3.8 6s1.7 4.4 2.2 6.8.7 4.9.1 7.8z"/><path fill="#0046A0" d="M120.2 308.3c.9 1.7 1.8 3.4 2.7 5.2.9 1.7 1.7 3.5 2.5 5.2.8 1.8 1.6 3.5 2.4 5.3.8 1.8 1.5 3.6 2.2 5.4-.9-1.7-1.8-3.4-2.7-5.2-.9-1.7-1.7-3.5-2.5-5.2-.8-1.8-1.6-3.5-2.4-5.3-.7-1.8-1.5-3.6-2.2-5.4z"/><path opacity=".1" fill="#0046A0" d="M125.1 311.2c-1.6-1.9-3.3-3.6-5.9-5.1-.1.4-.1.7-.2 1.1 1.5 1.1 2.8 2.4 3.9 3.8 1.5 1.9 2.8 3.9 3.8 6s1.7 4.4 2.2 6.8c.4 2.1.6 4.3.2 6.7.6.5 1.3.9 2 1.3.6-2.9.3-5.4-.1-7.8-.4-2.4-1.2-4.6-2.2-6.8-.9-2.1-2.2-4.1-3.7-6z"/><path fill="#6E7FDD" d="M130.7 331.4c-1.8 2.3-3.9 3.7-6 4.9-2.1 1.2-4.3 2.1-6.6 2.7-2.3.6-4.6.9-7.1 1-2.4 0-4.9-.2-7.7-1.3 1.8-2.3 3.9-3.7 6-4.9 2.1-1.2 4.3-2.1 6.6-2.7 2.3-.6 4.6-.9 7.1-.9s5 .2 7.7 1.2z"/><path fill="#0046A0" d="M105.8 338c1.8-.6 3.7-1.2 5.5-1.7 1.9-.5 3.7-1 5.6-1.6 1.9-.5 3.7-1 5.6-1.4s3.8-.9 5.7-1.3c-1.8.6-3.7 1.2-5.5 1.7-1.9.5-3.7 1-5.6 1.5s-3.7 1-5.6 1.4c-2 .6-3.8 1.1-5.7 1.4z"/><path opacity=".1" fill="#0046A0" d="M109.4 333.7c-2.1 1.2-4.2 2.7-6 4.9.4.1.7.3 1.1.4 1.4-1.3 2.9-2.3 4.4-3.2 2.1-1.2 4.3-2.1 6.6-2.7 2.3-.6 4.6-.9 7.1-.9 2.1 0 4.3.2 6.6.9.6-.5 1.1-1.1 1.6-1.7-2.7-1.1-5.2-1.3-7.7-1.3-2.4 0-4.8.3-7.1.9-2.3.7-4.5 1.6-6.6 2.7z"/></g><g><path fill="#6E7FDD" d="M151 336.2c-2.8-.8-4.9-2.2-6.8-3.7-1.9-1.5-3.6-3.2-5-5.1s-2.6-3.9-3.6-6.2c-.9-2.3-1.7-4.7-1.7-7.6 2.8.8 4.9 2.2 6.8 3.7 1.9 1.5 3.6 3.2 5 5.1s2.6 3.9 3.6 6.2c.9 2.3 1.6 4.7 1.7 7.6z"/><path fill="#0046A0" d="M135.3 315.7c1.3 1.5 2.5 3 3.7 4.5s2.4 3 3.6 4.6c1.2 1.6 2.3 3.1 3.5 4.7 1.1 1.6 2.3 3.1 3.3 4.8-1.3-1.5-2.5-3-3.7-4.5s-2.4-3-3.6-4.6c-1.2-1.6-2.3-3.1-3.5-4.7-1.1-1.7-2.2-3.2-3.3-4.8z"/><path opacity=".1" fill="#0046A0" d="M140.7 317.4c-1.9-1.5-4-2.8-6.8-3.7 0 .4 0 .8.1 1.1 1.7.8 3.2 1.8 4.6 2.8 1.9 1.5 3.6 3.2 5 5.1s2.6 3.9 3.6 6.2c.8 2 1.5 4 1.7 6.4.7.3 1.4.6 2.2.8-.1-2.9-.8-5.3-1.7-7.6-1-2.2-2.2-4.3-3.6-6.2-1.6-1.7-3.2-3.4-5.1-4.9z"/><path fill="#6E7FDD" d="M150.5 336c-1.3 2.6-3 4.4-4.8 6.1-1.8 1.6-3.8 2.9-5.9 4-2.1 1.1-4.3 1.9-6.7 2.4s-4.9.8-7.8.4c1.3-2.6 3-4.5 4.8-6.1s3.8-2.9 5.9-4c2.1-1.1 4.3-1.9 6.7-2.4 2.5-.6 4.9-.9 7.8-.4z"/><path fill="#0046A0" d="M127.5 347.8c1.7-1 3.4-1.9 5.1-2.9l5.1-2.7c1.7-.9 3.4-1.7 5.2-2.6 1.7-.8 3.5-1.7 5.3-2.4-1.7 1-3.4 1.9-5.1 2.9l-5.1 2.7c-1.7.9-3.4 1.7-5.2 2.6-1.7.8-3.5 1.6-5.3 2.4z"/><path opacity=".1" fill="#0046A0" d="M130.2 342.8c-1.8 1.6-3.5 3.5-4.8 6.1.4.1.7.1 1.1.1 1.1-1.6 2.3-2.9 3.6-4 1.8-1.6 3.8-2.9 5.9-4 2.1-1.1 4.3-1.9 6.7-2.4 2.1-.4 4.2-.7 6.6-.5.4-.6.8-1.3 1.2-2.1-2.9-.4-5.4-.1-7.8.4-2.4.5-4.6 1.4-6.7 2.4-2 1-4 2.4-5.8 4z"/></g><g><path fill="#6E7FDD" d="M416.5 219.5c-2.3 1.7-4.5 3.5-6.6 5.5-5.2 4.8-10 10-14.3 15.6-5.9 7.7-10.8 16-14.4 24.9-4.3 10.6-6.7 21.9-6.8 33.3-.2 14 3.1 27.8 8.5 40.6.8 1.9 1.6 3.7 2.5 5.5.3.6 1.1.1.9-.5-6.2-12.9-10.2-26.9-10.8-41.4-.4-11.4 1.4-22.9 5.4-33.8 3.3-9.1 8-17.7 13.8-25.6 4.3-5.9 9.2-11.5 14.6-16.6 2.5-2.3 5.2-4.5 7.7-6.5l.1-.1c.4-.4-.1-1.3-.6-.9z"/><path fill="#6E7FDD" d="M408.2 226.6c1-2.7 2.5-4.7 4-6.6 1.6-1.8 3.4-3.4 5.3-4.7s4-2.5 6.3-3.3 4.7-1.5 7.6-1.4c-1 2.7-2.4 4.7-4 6.6-1.6 1.8-3.4 3.4-5.3 4.7s-4 2.4-6.3 3.3c-2.3.7-4.7 1.4-7.6 1.4z"/><path fill="#0046A0" d="M429.5 211.9c-1.5 1.2-3.1 2.3-4.6 3.5-1.6 1.1-3.2 2.2-4.7 3.3-1.6 1.1-3.2 2.2-4.8 3.2-1.6 1.1-3.2 2.1-4.9 3.1 1.5-1.2 3.1-2.3 4.6-3.5 1.6-1.1 3.2-2.2 4.7-3.3 1.6-1.1 3.2-2.2 4.8-3.2 1.6-1.1 3.2-2.1 4.9-3.1z"/><path opacity=".1" fill="#0046A0" d="M427.4 217.1c1.6-1.8 3-3.9 4-6.6h-1.1c-.9 1.7-1.9 3.1-3.1 4.4-1.6 1.8-3.4 3.4-5.3 4.7s-4 2.4-6.3 3.3c-2 .7-4.1 1.3-6.5 1.4-.4.7-.7 1.4-1 2.2 2.9 0 5.3-.6 7.6-1.5s4.4-2 6.3-3.3c2-1.2 3.8-2.8 5.4-4.6z"/><path fill="#6E7FDD" d="M401.9 233.1c2.1-2 4.3-3.2 6.5-4.3 2.2-1 4.5-1.6 6.8-2s4.7-.5 7.1-.3 4.8.7 7.4 1.9c-2.1 2-4.3 3.3-6.5 4.3s-4.5 1.6-6.8 2-4.7.5-7.1.3-4.8-.6-7.4-1.9z"/><path fill="#0046A0" d="M427.3 228.9l-5.7 1.2c-1.9.4-3.8.7-5.7 1l-5.7.9c-1.9.3-3.8.5-5.7.7l5.7-1.2c1.9-.4 3.8-.7 5.7-1l5.7-.9c1.9-.2 3.8-.5 5.7-.7z"/><path opacity=".1" fill="#0046A0" d="M423.2 232.8c2.2-1 4.4-2.2 6.5-4.3-.3-.2-.7-.3-1-.5-1.5 1.2-3.1 2-4.7 2.7-2.2 1-4.5 1.6-6.8 2s-4.7.5-7.1.3c-2.1-.2-4.2-.6-6.4-1.5-.6.5-1.2 1-1.8 1.6 2.6 1.3 5 1.7 7.4 1.9s4.8.1 7.1-.3c2.3-.3 4.6-1 6.8-1.9z"/><path fill="#6E7FDD" d="M402.4 232.9c-1.6-2.3-2.4-4.6-2.9-6.9-.5-2.3-.7-4.6-.6-6.9.1-2.3.4-4.6 1.1-6.9.7-2.3 1.7-4.6 3.4-6.9 1.6 2.3 2.4 4.6 3 6.9.5 2.3.7 4.6.6 6.9-.1 2.3-.4 4.6-1.1 6.9-.8 2.3-1.7 4.6-3.5 6.9z"/><path fill="#0046A0" d="M403.3 207.6c.1 1.9 0 3.8 0 5.7s-.1 3.8-.1 5.7l-.3 5.7c-.1 1.9-.2 3.8-.4 5.7-.1-1.9 0-3.8 0-5.7s.1-3.8.1-5.7l.3-5.7c0-1.9.2-3.8.4-5.7z"/><path opacity=".1" fill="#0046A0" d="M406.3 212.2c-.6-2.3-1.3-4.6-3-6.9-.2.3-.5.6-.7.9.9 1.7 1.4 3.3 1.8 4.9.5 2.3.7 4.6.6 6.9-.1 2.3-.4 4.6-1.1 6.9-.6 2-1.4 4-2.8 6 .3.7.7 1.3 1.2 2 1.8-2.3 2.7-4.6 3.4-6.9.7-2.3 1-4.6 1.1-6.9.2-2.3 0-4.6-.5-6.9z"/><path fill="#6E7FDD" d="M392.1 246.5c1.7-2.3 3.7-3.9 5.8-5.2 2.1-1.3 4.2-2.3 6.4-3 2.2-.7 4.6-1.2 7-1.4 2.4-.1 4.9-.1 7.6.8-1.7 2.3-3.7 3.9-5.8 5.2-2.1 1.3-4.2 2.3-6.4 3-2.2.7-4.6 1.2-7 1.4-2.4.1-4.9.1-7.6-.8z"/><path fill="#0046A0" d="M416.6 238.4c-1.8.7-3.6 1.4-5.4 2-1.8.7-3.7 1.3-5.5 1.9-1.8.6-3.7 1.2-5.5 1.8s-3.7 1.1-5.6 1.6c1.8-.7 3.6-1.4 5.4-2s3.7-1.3 5.5-1.9c1.8-.6 3.7-1.2 5.5-1.8 1.9-.5 3.7-1.1 5.6-1.6z"/><path opacity=".1" fill="#0046A0" d="M413.1 242.9c2-1.3 4-2.9 5.8-5.2-.4-.1-.7-.2-1.1-.3-1.3 1.4-2.8 2.4-4.2 3.4-2.1 1.3-4.2 2.3-6.4 3-2.2.7-4.6 1.2-7 1.4-2.1.1-4.3.1-6.6-.5-.5.6-1.1 1.1-1.6 1.8 2.7.8 5.2.9 7.6.8 2.4-.2 4.7-.7 7-1.4s4.5-1.7 6.5-3z"/><path fill="#6E7FDD" d="M392.5 246.2c-2-2-3.1-4.2-4-6.4s-1.4-4.4-1.7-6.7c-.3-2.3-.3-4.6 0-7s.9-4.8 2.3-7.3c2 2 3.1 4.2 4 6.4s1.4 4.4 1.7 6.7c.3 2.3.3 4.6 0 7-.4 2.4-.9 4.8-2.3 7.3z"/><path fill="#0046A0" d="M389.3 221.2c.4 1.8.7 3.7.9 5.6.3 1.9.5 3.7.8 5.6.2 1.9.4 3.7.6 5.6.2 1.9.4 3.7.5 5.6-.4-1.8-.7-3.7-.9-5.6-.3-1.9-.5-3.7-.8-5.6-.2-1.9-.5-3.7-.6-5.6-.2-1.8-.4-3.7-.5-5.6z"/><path opacity=".1" fill="#0046A0" d="M393 225.2c-.9-2.2-2.1-4.3-4-6.4-.2.3-.4.7-.5 1 1.1 1.5 1.9 3 2.5 4.6.9 2.2 1.4 4.4 1.7 6.7.3 2.3.3 4.6 0 7-.3 2.1-.8 4.1-1.8 6.3.4.6.9 1.2 1.5 1.8 1.4-2.5 2-4.9 2.3-7.3.3-2.4.3-4.7 0-7-.2-2.3-.8-4.5-1.7-6.7z"/><g><path fill="#6E7FDD" d="M383.4 261.8c1.3-2.6 3.1-4.4 4.9-6 1.8-1.6 3.8-2.9 5.9-4s4.3-1.9 6.7-2.5c2.4-.5 4.9-.9 7.7-.4-1.3 2.6-3.1 4.4-4.9 6-1.8 1.6-3.8 2.9-5.9 4s-4.3 1.9-6.7 2.5c-2.4.5-4.8.8-7.7.4z"/><path fill="#0046A0" d="M406.4 250c-1.7 1-3.4 1.9-5.1 2.8l-5.1 2.7c-1.7.9-3.4 1.7-5.2 2.6-1.7.8-3.5 1.7-5.3 2.4 1.7-1 3.4-1.9 5.1-2.8l5.1-2.7c1.7-.9 3.4-1.7 5.2-2.6 1.8-.8 3.5-1.6 5.3-2.4z"/><path opacity=".1" fill="#0046A0" d="M403.7 254.9c1.8-1.6 3.5-3.4 4.9-6-.4-.1-.7-.1-1.1-.1-1.1 1.6-2.3 2.8-3.6 4-1.8 1.6-3.8 2.9-5.9 4-2.1 1.1-4.3 1.9-6.7 2.5-2.1.5-4.2.8-6.6.6-.4.6-.9 1.3-1.2 2 2.9.4 5.3.1 7.7-.5 2.4-.6 4.6-1.4 6.7-2.5 2-1.1 4-2.4 5.8-4z"/><path fill="#6E7FDD" d="M383.7 261.4c-2.3-1.7-3.8-3.6-5-5.6-1.2-2-2.1-4.1-2.8-6.3-.7-2.2-1-4.5-1.1-6.8 0-2.4.1-4.8 1.1-7.5 2.3 1.7 3.8 3.6 5 5.6s2.1 4.1 2.8 6.3c.7 2.2 1 4.5 1.1 6.8.1 2.4-.1 4.8-1.1 7.5z"/><path fill="#0046A0" d="M376.6 237.4c.7 1.8 1.2 3.5 1.8 5.3.6 1.8 1.1 3.6 1.7 5.4.5 1.8 1.1 3.6 1.5 5.4.5 1.8 1 3.6 1.4 5.5-.7-1.8-1.2-3.5-1.8-5.3-.6-1.8-1.1-3.6-1.7-5.4-.5-1.8-1.1-3.6-1.5-5.4-.5-1.9-1-3.7-1.4-5.5z"/><path opacity=".1" fill="#0046A0" d="M380.9 240.7c-1.3-2-2.7-3.9-5-5.6-.1.4-.2.7-.3 1 1.3 1.3 2.4 2.7 3.3 4.1 1.2 2 2.1 4.1 2.8 6.3.7 2.2 1 4.5 1.1 6.8 0 2.1-.1 4.2-.8 6.5.5.5 1.1 1 1.8 1.5 1-2.7 1.1-5.2 1.1-7.5-.1-2.4-.5-4.6-1.1-6.8-.7-2.1-1.6-4.3-2.9-6.3z"/></g><g><path fill="#6E7FDD" d="M377.3 279.8c.8-2.7 2.2-4.8 3.6-6.8 1.5-1.9 3.2-3.6 5-5 1.9-1.5 3.9-2.7 6.1-3.7s4.6-1.8 7.5-1.9c-.8 2.8-2.2 4.9-3.6 6.8-1.5 1.9-3.2 3.6-5 5-1.9 1.4-3.9 2.7-6.1 3.7s-4.6 1.8-7.5 1.9z"/><path fill="#0046A0" d="M397.7 264c-1.4 1.3-2.9 2.5-4.4 3.7l-4.5 3.6c-1.5 1.2-3.1 2.4-4.6 3.5-1.6 1.1-3.1 2.3-4.7 3.4 1.4-1.3 2.9-2.5 4.4-3.7l4.5-3.6c1.5-1.2 3.1-2.4 4.6-3.5 1.5-1.2 3.1-2.3 4.7-3.4z"/><path opacity=".1" fill="#0046A0" d="M396 269.3c1.5-1.9 2.8-4 3.6-6.8-.4 0-.7 0-1.1.1-.8 1.7-1.8 3.2-2.8 4.6-1.5 1.9-3.2 3.6-5 5-1.9 1.4-3.9 2.7-6.1 3.7-2 .8-4 1.5-6.4 1.8-.3.7-.6 1.4-.8 2.2 2.9-.1 5.3-.9 7.5-1.9s4.3-2.2 6.1-3.7c1.8-1.5 3.5-3.1 5-5z"/><path fill="#6E7FDD" d="M377.6 279.4c-2.6-1.2-4.4-2.8-6-4.5s-2.9-3.6-4-5.6-1.9-4.2-2.4-6.5-.8-4.7-.4-7.6c2.6 1.2 4.4 2.8 6.1 4.5 1.6 1.7 2.9 3.6 4 5.6s1.9 4.2 2.4 6.5c.4 2.3.7 4.8.3 7.6z"/><path fill="#0046A0" d="M365.8 257.3c1 1.6 1.9 3.2 2.8 4.9.9 1.6 1.8 3.3 2.7 4.9.9 1.7 1.7 3.3 2.6 5 .8 1.7 1.7 3.4 2.4 5.1-1-1.6-1.9-3.2-2.8-4.9-.9-1.6-1.8-3.3-2.7-4.9-.9-1.7-1.7-3.3-2.6-5l-2.4-5.1z"/><path opacity=".1" fill="#0046A0" d="M370.8 259.7c-1.6-1.7-3.5-3.3-6.1-4.5-.1.4-.1.7-.1 1.1 1.6 1 2.8 2.2 4 3.4 1.6 1.7 2.9 3.6 4 5.6s1.9 4.2 2.4 6.5c.4 2 .7 4.1.5 6.5.6.4 1.3.8 2 1.1.4-2.8.1-5.2-.4-7.6-.5-2.3-1.4-4.5-2.4-6.5s-2.3-3.8-3.9-5.6z"/></g><g><path fill="#6E7FDD" d="M374.7 296.1c.6-2.8 1.8-5 3.1-7 1.4-2 2.9-3.8 4.7-5.4 1.7-1.6 3.7-3 5.8-4.1 2.2-1.1 4.5-2.1 7.4-2.4-.6 2.8-1.8 5-3.1 7-1.4 2-2.9 3.8-4.7 5.4-1.7 1.6-3.7 2.9-5.8 4.1-2.2 1.1-4.5 2.1-7.4 2.4z"/><path fill="#0046A0" d="M393.9 278.9c-1.4 1.4-2.7 2.7-4.1 4s-2.8 2.6-4.3 3.9c-1.4 1.3-2.9 2.6-4.3 3.8-1.5 1.3-2.9 2.5-4.5 3.7 1.4-1.4 2.7-2.7 4.1-4s2.8-2.6 4.3-3.9c1.4-1.3 2.9-2.6 4.3-3.8 1.5-1.3 2.9-2.5 4.5-3.7z"/><path opacity=".1" fill="#0046A0" d="M392.6 284.2c1.3-2 2.5-4.2 3.1-7-.4 0-.7.1-1.1.2-.6 1.8-1.5 3.3-2.5 4.8-1.4 2-2.9 3.8-4.7 5.4-1.7 1.6-3.7 2.9-5.8 4.1-1.9 1-3.9 1.8-6.3 2.3-.3.7-.5 1.5-.7 2.3 2.9-.4 5.2-1.3 7.4-2.4 2.1-1.1 4.1-2.5 5.8-4.1 1.8-1.8 3.4-3.6 4.8-5.6z"/><path fill="#6E7FDD" d="M374.9 295.7c-2.7-1-4.6-2.5-6.4-4.1-1.7-1.6-3.2-3.4-4.4-5.3-1.2-1.9-2.2-4-2.9-6.3-.7-2.3-1.2-4.7-.9-7.5 2.7 1 4.6 2.5 6.4 4.1 1.7 1.6 3.2 3.4 4.4 5.3 1.2 1.9 2.2 4 2.9 6.3.6 2.2 1.1 4.6.9 7.5z"/><path fill="#0046A0" d="M361.5 274.5c1.1 1.5 2.2 3.1 3.2 4.6 1 1.6 2 3.1 3.1 4.7l3 4.8c1 1.6 1.9 3.2 2.8 4.9-1.1-1.5-2.2-3.1-3.2-4.6-1-1.6-2-3.1-3.1-4.7l-3-4.8c-.9-1.6-1.9-3.2-2.8-4.9z"/><path opacity=".1" fill="#0046A0" d="M366.6 276.6c-1.8-1.6-3.7-3.1-6.4-4.1 0 .4 0 .7-.1 1.1 1.6.9 3 2 4.3 3.1 1.7 1.6 3.2 3.4 4.4 5.3 1.2 1.9 2.2 4 2.9 6.3.6 2 1 4 1 6.4.7.4 1.4.7 2.1 1 .2-2.8-.3-5.2-1-7.5-.7-2.2-1.7-4.3-2.9-6.3-1.1-1.9-2.5-3.7-4.3-5.3z"/></g><g><path fill="#6E7FDD" d="M376.2 315.9c0-2.8.7-5.2 1.5-7.5.9-2.2 2-4.3 3.4-6.2 1.4-1.9 3-3.6 4.8-5.2 1.9-1.5 4-3 6.7-3.9 0 2.9-.7 5.2-1.5 7.5-.9 2.2-2 4.3-3.4 6.2-1.4 1.9-3 3.6-4.8 5.2-1.9 1.5-4 2.9-6.7 3.9z"/><path fill="#0046A0" d="M391.2 295.1c-1 1.6-2.1 3.2-3.2 4.8-1.1 1.6-2.2 3.1-3.3 4.7-1.1 1.5-2.3 3.1-3.4 4.6-1.2 1.5-2.3 3.1-3.6 4.5 1-1.6 2.1-3.2 3.2-4.8 1.1-1.6 2.2-3.1 3.3-4.7 1.1-1.5 2.3-3.1 3.4-4.6l3.6-4.5z"/><path opacity=".1" fill="#0046A0" d="M391.1 300.6c.9-2.3 1.5-4.6 1.5-7.5-.4.1-.7.3-1 .4-.2 1.9-.8 3.5-1.4 5.1-.9 2.2-2 4.3-3.4 6.2-1.4 1.9-3 3.6-4.8 5.2-1.6 1.3-3.4 2.6-5.7 3.5-.1.7-.2 1.5-.2 2.3 2.8-1 4.8-2.4 6.7-3.9 1.9-1.6 3.5-3.3 4.8-5.2 1.5-1.8 2.6-3.9 3.5-6.1z"/><path fill="#6E7FDD" d="M376.3 315.4c-2.8-.4-5.1-1.4-7.2-2.6-2-1.1-3.9-2.6-5.5-4.2s-3-3.4-4.2-5.5-2.2-4.3-2.6-7.1c2.9.4 5.1 1.4 7.2 2.6s3.9 2.6 5.5 4.2 3 3.4 4.2 5.5 2.2 4.3 2.6 7.1z"/><path fill="#0046A0" d="M358.5 297.7c1.4 1.2 2.8 2.5 4.2 3.8 1.4 1.3 2.7 2.6 4 3.9s2.6 2.7 3.9 4c1.3 1.4 2.6 2.7 3.8 4.1-1.4-1.2-2.8-2.5-4.2-3.8-1.4-1.3-2.7-2.6-4-3.9s-2.6-2.7-3.9-4-2.6-2.7-3.8-4.1z"/><path opacity=".1" fill="#0046A0" d="M364 298.6c-2.1-1.2-4.3-2.2-7.2-2.6.1.4.1.7.2 1.1 1.8.5 3.4 1.3 4.9 2.1 2.1 1.2 3.9 2.6 5.5 4.2s3 3.4 4.2 5.5c1 1.8 1.9 3.7 2.4 6 .7.2 1.5.4 2.3.5-.4-2.8-1.4-5-2.6-7.1-1.2-2-2.6-3.8-4.2-5.5-1.7-1.6-3.5-3-5.5-4.2z"/></g></g><g><path fill="#6E7FDD" d="M384.9 369.4c0 7.8-6.4 14.2-14.2 14.2H124.8c-7.8 0-14.2-6.4-14.2-14.2V221.2c0-7.8 6.4-14.2 14.2-14.2h245.9c7.8 0 14.2 6.4 14.2 14.2v148.2z"/><path fill="#F2F5FC" d="M124.8 218.3h245.9v133.8H124.8V218.3z"/><path fill="#A8BBF7" d="M205.4 383.6h84.7v12.6h-84.7v-12.6z"/><path fill="#6E7FDD" d="M302.5 396.2H192.9c-5.9 0-10.7 4.8-10.7 10.7 0 1.4 1.1 2.6 2.6 2.6h125.8c1.4 0 2.6-1.1 2.6-2.6 0-5.9-4.8-10.7-10.7-10.7z"/></g><g><path fill="#E5EBFE" d="M329.2 314.7H165.9c-9.3 0-16.9-7.5-16.9-16.9V194.1c0-9.3 7.5-16.9 16.9-16.9h163.2c9.3 0 16.9 7.5 16.9 16.9v103.8c0 9.3-7.5 16.8-16.8 16.8z"/><path fill="#D1DCF7" d="M346 204.5H149.1v-10c0-9.3 7.5-16.9 16.9-16.9h163.2c9.3 0 16.9 7.5 16.9 16.9v10h-.1z"/><circle fill="#F0F5FF" cx="164.9" cy="191.3" r="6.2"/><circle fill="#F0F5FF" cx="184.2" cy="191.3" r="6.2"/><circle fill="#F0F5FF" cx="203.5" cy="191.3" r="6.2"/><path fill="#EDF4FC" d="M161 294.7c-1.3 0-2.3-1-2.3-2.3v-73.5c0-1.3 1-2.3 2.3-2.3s2.3 1 2.3 2.3v73.5c0 1.2-1 2.3-2.3 2.3z"/><path opacity=".3" fill="#A8BFE2" d="M329.2 177.2h-2.5c5.1 10.7 9.7 24.6 9.7 36.2 0 43.2-34.3 80.5-96.2 101.3h89c9.3 0 16.9-7.5 16.9-16.9V194.1c-.1-9.3-7.6-16.9-16.9-16.9z"/><path fill="#6E7FDD" d="M200.9 266.5h-21.7v-9.8l21.7-25.8h10.4v26.4h5.4v9.3h-5.4v8h-10.4v-8.1zm0-9.3v-13.5l-11.5 13.5h11.5zm26.5-4.7c0-8.2 1.5-13.9 4.4-17.1s7.4-4.9 13.4-4.9c2.9 0 5.3.4 7.1 1.1s3.4 1.6 4.5 2.8c1.2 1.1 2.1 2.3 2.8 3.6s1.2 2.7 1.6 4.4c.8 3.2 1.2 6.5 1.2 10 0 7.8-1.3 13.5-4 17.1-2.6 3.6-7.2 5.4-13.6 5.4-3.6 0-6.5-.6-8.8-1.7s-4.1-2.8-5.5-5.1c-1-1.6-1.8-3.7-2.4-6.5s-.7-5.8-.7-9.1zm9.2 0c0 5.5.7 9.2 2.1 11.2 1.4 2 3.5 3 6.1 3 1.8 0 3.3-.4 4.6-1.3 1.3-.8 2.2-2.2 2.9-4 .6-1.8.9-4.7.9-8.6 0-5.7-.7-9.5-2.1-11.5-1.4-2-3.5-2.9-6.3-2.9-2.9 0-5 1-6.2 3s-2 5.7-2 11.1zm56.3 14h-21.7v-9.8l21.7-25.8h10.4v26.4h5.4v9.3h-5.4v8h-10.4v-8.1zm0-9.3v-13.5l-11.5 13.5h11.5z"/></g><g><path fill="#F9AB43" d="M141.9 170h-3.4c-.1-.4-.2-.7-.3-1.1l3-1.7c1.5-.9 2-2.8 1.2-4.3l-.4-.6c-.9-1.5-2.8-2-4.3-1.2l-3 1.7-.9-.9 1.7-3c.9-1.5.3-3.5-1.2-4.3l-.6-.4c-1.5-.9-3.5-.3-4.3 1.2l-1.7 3c-.4-.1-.7-.2-1.1-.3v-3.4c0-1.7-1.4-3.2-3.2-3.2h-.7c-1.7 0-3.2 1.4-3.2 3.2v3.4c-.4.1-.7.2-1.1.3l-1.7-3c-.9-1.5-2.8-2-4.3-1.2l-.6.4c-1.5.9-2 2.8-1.2 4.3l1.7 3-.9.9-3-1.7c-1.5-.9-3.5-.3-4.3 1.2l-.4.6c-.9 1.5-.3 3.5 1.2 4.3l3 1.7c-.1.4-.2.7-.3 1.1h-3.4c-1.7 0-3.2 1.4-3.2 3.2v.7c0 1.7 1.4 3.2 3.2 3.2h3.4c.1.4.2.7.3 1.1l-3 1.7c-1.5.9-2 2.8-1.2 4.3l.4.6c.9 1.5 2.8 2 4.3 1.2l3-1.7.9.9-1.7 3c-.9 1.5-.3 3.5 1.2 4.3l.6.4c1.5.9 3.5.3 4.3-1.2l1.7-3c.4.1.7.2 1.1.3v3.4c0 1.7 1.4 3.2 3.2 3.2h.7c1.7 0 3.2-1.4 3.2-3.2V189c.4-.1.7-.2 1.1-.3l1.7 3c.9 1.5 2.8 2 4.3 1.2l.6-.4c1.5-.9 2-2.8 1.2-4.3l-1.7-3 .9-.9 3 1.7c1.5.9 3.5.3 4.3-1.2l.4-.6c.9-1.5.3-3.5-1.2-4.3l-3-1.7c.1-.4.2-.7.3-1.1h3.4c1.7 0 3.2-1.4 3.2-3.2v-.7c0-1.8-1.4-3.2-3.2-3.2zM123 184.4c-6 0-10.9-4.9-10.9-10.9s4.9-10.9 10.9-10.9 10.9 4.9 10.9 10.9-4.8 10.9-10.9 10.9z"/><path fill="#EB725F" d="M170.9 137.8l-2.9.7c-.1-.3-.3-.6-.4-.9l2.2-2c1.1-1 1.2-2.8.2-3.9l-.4-.5c-1-1.1-2.8-1.2-3.9-.2l-2.2 2-.9-.6.9-2.8c.4-1.4-.4-3-1.8-3.4l-.6-.2c-1.4-.4-3 .4-3.4 1.8l-.9 2.8h-1l-.7-2.9c-.3-1.5-1.8-2.4-3.3-2.1l-.6.1c-1.5.3-2.4 1.8-2.1 3.3l.7 2.9c-.3.1-.6.3-.9.4l-2-2.2c-1-1.1-2.8-1.2-3.9-.2l-.5.4c-1.1 1-1.2 2.8-.2 3.9l2 2.2-.6.9-2.8-.9c-1.4-.4-3 .4-3.4 1.8l-.2.6c-.4 1.4.4 3 1.8 3.4l2.8.9v1l-2.9.9c-1.5.3-2.4 1.8-2.1 3.3l.1.6c.3 1.5 1.8 2.4 3.3 2.1l2.9-.7c.1.3.3.6.4.9l-2.2 2c-1.1 1-1.2 2.8-.2 3.9l.4.5c1 1.1 2.8 1.2 3.9.2l2.2-2 .9.6-.9 2.8c-.4 1.4.4 3 1.8 3.4l.6.2c1.4.4 3-.4 3.4-1.8l.9-2.8h1l.7 2.9c.3 1.5 1.8 2.4 3.3 2.1l.6-.1c1.5-.3 2.4-1.8 2.1-3.3l-.7-2.9c.3-.1.6-.3.9-.4l2 2.2c1 1.1 2.8 1.2 3.9.2l.5-.4c1.1-1 1.2-2.8.2-3.9l-2-2.2.6-.9 2.8.9c1.4.4 3-.4 3.4-1.8l.2-.6c.4-1.4-.4-3-1.8-3.4l-2.8-.9v-1l2.9-.7c1.5-.3 2.4-1.8 2.1-3.3l-.1-.6c-.4-1.7-1.9-2.6-3.3-2.3zm-13.2 15.8c-5.1 1.2-10.2-2-11.3-7.1-1.2-5.1 2-10.2 7.1-11.3 5.1-1.2 10.2 2 11.3 7.1 1.2 5.1-2 10.2-7.1 11.3zm219-1.4l-2.8.6c-.1-.3-.3-.6-.4-.8l2.1-2c1.1-1 1.2-2.7.2-3.8l-.4-.5c-1-1.1-2.7-1.2-3.8-.2l-2.1 2-.9-.6.9-2.8c.4-1.4-.4-2.9-1.8-3.4l-.6-.2c-1.4-.4-2.9.4-3.4 1.8l-.8 2.8h-.9l-.6-2.8c-.3-1.5-1.8-2.4-3.2-2l-.6.1c-1.5.3-2.4 1.8-2 3.2l.6 2.8c-.3.1-.6.3-.8.4l-2-2.1c-1-1.1-2.7-1.2-3.8-.2l-.5.4c-1.1 1-1.2 2.7-.2 3.8l2 2.1-.6.9-2.8-.9c-1.4-.4-2.9.4-3.4 1.8l-.2.6c-.4 1.4.4 2.9 1.8 3.4l2.8.8v.9l-2.8.6c-1.5.3-2.4 1.8-2 3.2l.1.6c.3 1.5 1.8 2.4 3.2 2l2.8-.6c.1.3.3.6.4.8l-2.1 2c-1.1 1-1.2 2.7-.2 3.8l.4.5c1 1.1 2.7 1.2 3.8.2l2.1-2 .9.6-.9 2.8c-.4 1.4.4 2.9 1.8 3.4l.6.2c1.4.4 2.9-.4 3.4-1.8l.8-2.8h.9l.6 2.8c.3 1.5 1.8 2.4 3.2 2l.6-.1c1.5-.3 2.4-1.8 2-3.2l-.6-2.8c.3-.1.6-.3.8-.4l2 2.1c1 1.1 2.7 1.2 3.8.2l.5-.4c1.1-1 1.2-2.7.2-3.8l-2-2.1.6-.9 2.8.9c1.4.4 2.9-.4 3.4-1.8l.2-.6c.4-1.4-.4-2.9-1.8-3.4l-2.8-.8v-.9l2.8-.6c1.5-.3 2.4-1.8 2-3.2l-.1-.6c-.3-1.4-1.7-2.3-3.2-2zm-12.9 15.5c-5 1.1-10-2-11.1-7s2-10 7-11.1 10 2 11.1 7-2 10-7 11.1z"/></g><g><path fill="#FFCF74" d="M294.4 406.5h135.4v7.7H294.4v-7.7z"/><path fill="#F9AB43" d="M416.8 406.5H307.4l47.3-116.6h14.8l47.3 116.6z"/><defs><path id="a" d="M416.8 406.5H307.4l47.3-116.6h14.8z"/></defs><clipPath id="b"><use xlink:href="#a" overflow="visible"/></clipPath><g clip-path="url(#b)"><path fill="#FFCF74" d="M287.6 363.7h148.9v27.9H287.6v-27.9zm0-55.6h148.9V336H287.6v-27.9z"/></g><path opacity=".1" fill="#0046A0" d="M379.6 331.6c8.8 26.8 9.6 53.4 3.8 74.9h33.3l-47.3-116.6h-11.3c8.9 11.8 16.3 25.9 21.5 41.7z"/><g opacity=".3"><path fill="#FFF" d="M352.6 313.3c-3.1 8.1-6.1 16.1-9.2 24.2-4.9 12.9-9.8 25.7-14.7 38.6-1.1 3-2.3 6-3.4 8.9-1 2.7 3.3 3.8 4.3 1.2 3.1-8.1 6.1-16.1 9.2-24.2 4.9-12.9 9.8-25.7 14.7-38.6 1.1-3 2.3-6 3.4-8.9 1-2.7-3.3-3.8-4.3-1.2z"/></g><g><path fill="#FFCF74" d="M86.5 404.3h79.1v4.5H86.5v-4.5z"/><path fill="#F9AB43" d="M158 404.3H94.1l27.6-68.1h8.7l27.6 68.1z"/><defs><path id="c" d="M158 404.3H94.1l27.6-68.1h8.7z"/></defs><clipPath id="d"><use xlink:href="#c" overflow="visible"/></clipPath><g clip-path="url(#d)"><path fill="#FFCF74" d="M82.5 379.2h87v16.3h-87v-16.3zm0-32.4h87v16.3h-87v-16.3z"/></g><path opacity=".1" fill="#0046A0" d="M136.3 360.5c5.1 15.6 5.6 31.2 2.2 43.7H158l-27.6-68.1h-6.6c5.1 6.9 9.4 15.2 12.5 24.4z"/><g opacity=".3"><path fill="#FFF" d="M120.5 349.8l-5.4 14.1c-2.9 7.5-5.7 15-8.6 22.6-.7 1.7-1.3 3.5-2 5.2-.6 1.6 1.9 2.2 2.5.7l5.4-14.1c2.9-7.5 5.7-15 8.6-22.6.7-1.7 1.3-3.5 2-5.2.6-1.6-1.9-2.2-2.5-.7z"/></g></g></g><g fill="#F9AB43"><path d="M274.1 166.6h-59.7c-3.4 0-6-1.3-7.3-3.7-1.3-2.3-.9-5.3.9-8.1l29.1-44.5c1.8-2.7 4.4-4.3 7.2-4.3s5.4 1.6 7.2 4.3l29.1 44.5c1.8 2.8 2.2 5.8.9 8.1-1.4 2.3-4 3.7-7.4 3.7zm-60.8-8.4c-.7 1-.7 1.6-.6 1.7.1.1.5.4 1.7.4h59.7c1.2 0 1.7-.3 1.7-.4 0-.1 0-.7-.6-1.7l-29.1-44.5c-.6-.9-1.3-1.4-1.9-1.4-.6 0-1.3.5-1.9 1.4l-29 44.5z"/><path d="M242.6 153.5c-.4-.4-.7-1-.7-1.6 0-.7.2-1.2.7-1.6.4-.4 1-.7 1.6-.7.7 0 1.2.2 1.7.7.5.4.7 1 .7 1.6 0 .7-.2 1.2-.7 1.6-.5.4-1 .7-1.7.7-.6 0-1.2-.2-1.6-.7zm-1.4-27.3h6.1l-1.1 19.5h-3.8l-1.2-19.5z"/></g><g opacity=".2"><path fill="#4B6FEF" d="M328.8 115.3c-.7-1.5-.7-3 .1-4.4l.4-.7c.4-.6.6-1.1.7-1.4s.1-.7-.1-1c-.4-.9-1.3-.9-2.8-.3-.7.3-1.3.7-1.9 1.3-.6.5-1.2 1.1-1.7 1.7l-1.6-3.4c1.1-1.3 2.4-2.3 4.1-3.1 1.8-.9 3.4-1.2 4.9-.9 1.4.3 2.5 1.1 3.1 2.4.4.8.5 1.4.4 2.1-.1.6-.4 1.4-1 2.4-.4.7-.6 1.2-.8 1.5-.1.3-.2.7-.2 1s.1.7.3 1.1l.2.4-3.9 1.9-.2-.6zm3 5.1c-.6-.2-1-.6-1.3-1.2s-.3-1.2-.1-1.7c.2-.6.6-1 1.2-1.3s1.2-.3 1.8-.1c.6.2 1 .6 1.3 1.2s.3 1.2.1 1.7c-.2.6-.6 1-1.2 1.3s-1.2.4-1.8.1zm83.1 69.6c0-2 .8-3.5 2.4-4.6l.8-.5c.7-.5 1.2-.8 1.5-1.1s.4-.7.4-1.1c0-1.1-.9-1.7-2.8-1.7-.9 0-1.8.1-2.7.3-.9.2-1.8.5-2.6 1l.1-4.4c1.8-.8 3.8-1.2 6-1.1 2.4 0 4.2.5 5.6 1.6 1.4 1 2.1 2.4 2 4.1 0 1-.2 1.8-.7 2.4-.5.6-1.2 1.3-2.3 2-.7.5-1.2.9-1.6 1.2s-.6.6-.7.9c-.2.3-.3.8-.3 1.3v.5l-5.1-.1v-.7zm.5 6.9c-.5-.5-.8-1.1-.7-1.9 0-.8.3-1.4.8-1.9s1.2-.7 1.9-.7c.8 0 1.4.3 1.9.8s.8 1.1.8 1.9c0 .8-.3 1.4-.8 1.9s-1.2.8-1.9.7c-.8 0-1.5-.2-2-.8zm-67.6-94.6c1-2.3 2.7-3.7 5-4.3l1.1-.2c1.1-.2 1.8-.4 2.3-.6s.8-.6 1-1.1c.6-1.3-.3-2.4-2.5-3.4-1-.4-2.1-.7-3.4-.9-1.2-.2-2.4-.2-3.6-.1l2.2-5.3c2.5-.1 5 .4 7.6 1.5 2.8 1.2 4.8 2.7 5.9 4.6s1.3 3.8.4 5.9c-.5 1.2-1.1 2-2 2.5-.8.5-2.1.9-3.7 1.3-1.1.3-1.9.5-2.4.6-.5.2-1 .4-1.3.7-.4.3-.7.8-.9 1.4l-.3.6-6-2.5.6-.7zm-2.7 8.5c-.4-.9-.3-1.7 0-2.6.4-.9 1-1.5 1.9-1.9.9-.3 1.7-.3 2.6.1s1.5 1 1.9 1.9.4 1.7 0 2.6-1 1.5-1.9 1.8-1.8.3-2.7 0c-.8-.5-1.5-1.1-1.8-1.9zm-241.9 20.1c-.2-1.5.2-2.7 1.3-3.7l.5-.5c.5-.4.8-.8 1-1 .2-.3.2-.6.2-.9-.1-.8-.9-1.2-2.3-.9-.7.1-1.3.3-2 .6s-1.3.6-1.9 1l-.5-3.3c1.2-.8 2.7-1.3 4.3-1.6 1.8-.3 3.3-.1 4.4.5 1.2.6 1.8 1.5 2 2.9.1.7 0 1.4-.2 1.9-.3.5-.8 1.1-1.5 1.8-.5.5-.8.8-1 1.1-.2.2-.4.5-.4.8-.1.3-.1.6 0 1l.1.4-3.8.6-.2-.7zm1.2 5.1c-.4-.3-.7-.8-.8-1.3-.1-.6 0-1.1.4-1.5.3-.4.8-.7 1.4-.8s1.1 0 1.5.4c.5.3.7.8.8 1.3.1.6 0 1.1-.4 1.5-.3.4-.8.7-1.4.8s-1.1-.1-1.5-.4z"/></g></svg>