<svg xmlns="http://www.w3.org/2000/svg" xmlns:xlink="http://www.w3.org/1999/xlink" viewBox="0 0 500 500"><path fill="#4B6FEF" d="M213.8 124.6v-9.7h-6.5v9.7h-9.7v6.5h9.7v9.7h6.5v-9.7h9.7v-6.5h-9.7zM76.5 74.4V69H73v5.4h-5.4v3.5H73v5.3h3.5v-5.3h5.3v-3.5h-5.3zm226.4-1.7v-4.1h-2.8v4.1H296v2.8h4.1v4.2h2.8v-4.2h4.1v-2.8h-4.1zm84.6 2v-4.1h-2.7v4.1h-4.2v2.8h4.2v4.2h2.7v-4.2h4.2v-2.8h-4.2zM68.8 275.3v-9.7h-6.5v9.7h-9.7v6.5h9.7v9.7h6.5v-9.7h9.7v-6.5h-9.7zm92.4-66.6v-5.3h-3.5v5.3h-5.3v3.5h5.3v5.4h3.5v-5.4h5.4v-3.5h-5.4zM142.1 136v-4.1h-2.8v4.1h-4.2v2.8h4.2v4.2h2.8v-4.2h4.1V136h-4.1zm132.7 92.3v-4.1h-2.7v4.1h-4.2v2.8h4.2v4.2h2.7v-4.2h4.2v-2.8h-4.2zM220.5 74.4V69H217v5.4h-5.3v3.5h5.3v5.3h3.5v-5.3h5.3v-3.5h-5.3zm222.2 32v-9.3h-6.1v9.3h-9.2v6.1h9.2v9.2h6.1v-9.2h9.3v-6.1h-9.3z" opacity=".2"/><g opacity=".1" fill="#4B6FEF"><circle cx="327.8" cy="104.6" r="3.6"/><path d="M137 172.3c0 1.1-.9 1.9-1.9 1.9s-1.9-.9-1.9-1.9.9-1.9 1.9-1.9c1.1-.1 1.9.8 1.9 1.9zm5.6-99c0 1.1-.9 1.9-1.9 1.9s-1.9-.9-1.9-1.9.9-1.9 1.9-1.9 1.9.8 1.9 1.9z"/><circle cx="62.7" cy="119.2" r="3.6"/><path d="M235.5 100.7c0 1.1-.9 1.9-1.9 1.9s-1.9-.9-1.9-1.9.9-1.9 1.9-1.9 1.9.8 1.9 1.9zm176.2-34c0 1.1-.9 1.9-1.9 1.9s-1.9-.9-1.9-1.9.9-1.9 1.9-1.9 1.9.8 1.9 1.9zm40.1 88.9c0 1.1-.9 1.9-1.9 1.9s-1.9-.9-1.9-1.9.9-1.9 1.9-1.9 1.9.8 1.9 1.9zM50.1 243.3c0 1.1-.9 1.9-1.9 1.9s-1.9-.9-1.9-1.9.9-1.9 1.9-1.9 1.9.8 1.9 1.9z"/></g><ellipse opacity=".2" fill="#9DA0AC" cx="250" cy="418.2" rx="229.7" ry="17.1"/><path fill="#FCC397" d="M451.8 408c0 4.9-4 9-9 9H298.3c-4.9 0-9-4-9-9V183.7c0-4.9 4-9 9-9h144.5c4.9 0 9 4 9 9V408z"/><path fill="#FFF" d="M439.7 228.7c0 3.1-2.5 5.6-5.6 5.6h-127c-3.1 0-5.6-2.5-5.6-5.6V195c0-3.1 2.5-5.6 5.6-5.6h127c3.1 0 5.6 2.5 5.6 5.6v33.7z"/><path fill="#E3EBFC" d="M313.5 201.7h49.4v5.2h-49.4v-5.2zm57.4 0h38.9v5.2h-38.9v-5.2z"/><path fill="#EB725F" d="M417.7 201.7h10v5.2h-10v-5.2z"/><path fill="#E3EBFC" d="M378.3 217.4h49.4v5.2h-49.4v-5.2zm-47 0h38.9v5.2h-38.9v-5.2z"/><path fill="#EB725F" d="M313.5 217.4h10v5.2h-10v-5.2z"/><path fill="#FFF" d="M439.7 284.7c0 3.1-2.5 5.6-5.6 5.6h-127c-3.1 0-5.6-2.5-5.6-5.6V251c0-3.1 2.5-5.6 5.6-5.6h127c3.1 0 5.6 2.5 5.6 5.6v33.7z"/><path fill="#E3EBFC" d="M313.5 257.6h49.4v5.2h-49.4v-5.2zm57.4 0h38.9v5.2h-38.9v-5.2z"/><path fill="#EB725F" d="M417.7 257.6h10v5.2h-10v-5.2z"/><path fill="#E3EBFC" d="M378.3 273.3h49.4v5.2h-49.4v-5.2zm-47 0h38.9v5.2h-38.9v-5.2z"/><path fill="#EB725F" d="M313.5 273.3h10v5.2h-10v-5.2z"/><path fill="#FFF" d="M439.7 340.7c0 3.1-2.5 5.6-5.6 5.6h-127c-3.1 0-5.6-2.5-5.6-5.6V307c0-3.1 2.5-5.6 5.6-5.6h127c3.1 0 5.6 2.5 5.6 5.6v33.7z"/><path fill="#E3EBFC" d="M313.5 313.6h49.4v5.2h-49.4v-5.2zm57.4 0h38.9v5.2h-38.9v-5.2z"/><path fill="#EB725F" d="M417.7 313.6h10v5.2h-10v-5.2z"/><path fill="#E3EBFC" d="M378.3 329.3h49.4v5.2h-49.4v-5.2zm-47 0h38.9v5.2h-38.9v-5.2z"/><path fill="#EB725F" d="M313.5 329.3h10v5.2h-10v-5.2z"/><g><path fill="#FFF" d="M439.7 396.6c0 3.1-2.5 5.6-5.6 5.6h-127c-3.1 0-5.6-2.5-5.6-5.6v-33.7c0-3.1 2.5-5.6 5.6-5.6h127c3.1 0 5.6 2.5 5.6 5.6v33.7z"/><path fill="#E3EBFC" d="M313.5 369.6h49.4v5.2h-49.4v-5.2zm57.4 0h38.9v5.2h-38.9v-5.2z"/><path fill="#EB725F" d="M417.7 369.6h10v5.2h-10v-5.2z"/><path fill="#E3EBFC" d="M378.3 385.2h49.4v5.2h-49.4v-5.2zm-47 0h38.9v5.2h-38.9v-5.2z"/><path fill="#EB725F" d="M313.5 385.2h10v5.2h-10v-5.2z"/></g><g><path fill="#6E7FDD" d="M367.9 393.3c0 3.4-2.8 6.2-6.2 6.2H99.1c-3.4 0-6.2-2.8-6.2-6.2V230.4c0-3.4 2.8-6.2 6.2-6.2h262.6c3.4 0 6.2 2.8 6.2 6.2v162.9z"/><path fill="#B3C9F9" d="M105.3 234.4h250.2v145.9H105.3V234.4zM74.7 389.2v21.6c0 3.9 3.2 7 7 7H379c3.9 0 7-3.2 7-7v-21.6H74.7z"/><path fill="#FFF" d="M175.1 389.2v9.4c0 1.7 1.3 3.1 3.1 3.1h104.4c1.7 0 3.1-1.3 3.1-3.1v-9.4H175.1zM276.1 275.6c-8 0-15.3 2.6-21.4 6.9-7.7-12.2-21.3-20.2-36.7-20.2-24 0-43.3 19.3-43.5 43.2-1.4-.3-3-.4-4.4-.4-12.2 0-22.1 9.9-22.1 22.1s9.9 22.1 22.1 22.1h106.1c20.3 0 36.8-16.4 36.8-36.8s-16.6-36.9-36.9-36.9z"/><path fill="#EB725F" d="M249.3 298.2l-2.9-2.9c-.9-.9-2.3-.9-3.1 0l-13 13-12.9-13c-.9-.9-2.2-.9-3.1 0l-2.9 2.9c-.9.9-.9 2.3 0 3.1l13 13-13 13c-.9.9-.9 2.3 0 3.1l3 2.9c.9.8 2.3.8 3.1 0l12.9-12.9 13 12.9c.9.9 2.3.9 3.1 0l2.9-2.9c.9-.9.9-2.3 0-3.1l-12.9-13 12.9-13c.8-.8.8-2.2-.1-3.1z"/><path opacity=".1" fill="#0046A0" d="M361.7 224.2h-33.5c6.4 30 21.1 140.2-102.7 165H368V230.4c-.1-3.4-3-6.2-6.3-6.2z"/></g><g><path fill="#FFCF74" d="M93.5 374c-.2-1.5-.2-2.9-.1-4.3s.2-2.6.5-3.9c.5-2.5 1.1-4.8 2-7 1.8-4.4 4.3-8.4 7.3-11.9 3-3.6 6.7-6.8 11-9.5 2.2-1.4 4.5-2.6 7.1-3.7 1.3-.5 2.7-1 4.1-1.5s3-.8 4.7-1.1c.2 1.5.2 2.9.1 4.3-.1 1.3-.2 2.6-.5 3.9-.5 2.5-1.1 4.8-2 7-1.8 4.4-4.3 8.4-7.3 11.9-3.1 3.6-6.7 6.8-11 9.5-2.2 1.4-4.5 2.6-7.1 3.7-1.3.5-2.7 1-4.1 1.5-1.4.4-3 .8-4.7 1.1z"/><defs><path id="a" d="M93.5 374c-.2-1.5-.2-2.9-.1-4.3s.2-2.6.5-3.9c.5-2.5 1.1-4.8 2-7 1.8-4.4 4.3-8.4 7.3-11.9 3-3.6 6.7-6.8 11-9.5 2.2-1.4 4.5-2.6 7.1-3.7 1.3-.5 2.7-1 4.1-1.5s3-.8 4.7-1.1c.2 1.5.2 2.9.1 4.3-.1 1.3-.2 2.6-.5 3.9-.5 2.5-1.1 4.8-2 7-1.8 4.4-4.3 8.4-7.3 11.9-3.1 3.6-6.7 6.8-11 9.5-2.2 1.4-4.5 2.6-7.1 3.7-1.3.5-2.7 1-4.1 1.5-1.4.4-3 .8-4.7 1.1z"/></defs><clipPath id="b"><use xlink:href="#a" overflow="visible"/></clipPath><path clip-path="url(#b)" fill="#F9AB43" d="M132.8 350.2l-.1-.4-20.8 3 8.4-9.8 21.3-3.1-.1-.5-20.8 3.1 6.7-7.8-.4-.3-9.6 11.3.3-20.9h-.5l-.3 21.5-8.3 9.7.3-20.9h-.5l-.3 21.5-8.3 9.7.2-20.9h-.4l-.3 21.5-3.6 4.2.3.3 6.7-7.7 21.3-3.2-.1-.4-20.8 3.1 8.4-9.9 21.3-3.1z"/><path opacity=".1" fill="#0046A0" d="M98.2 372.9c1.4-.4 2.8-.9 4.1-1.5 2.6-1.1 5-2.3 7.1-3.7 4.3-2.7 8-5.9 11-9.5 3.1-3.6 5.6-7.5 7.3-11.9.9-2.2 1.6-4.5 2-7 .2-1.2.4-2.5.5-3.9.1-1.3.1-2.7-.1-4.3L93.5 374c1.7-.3 3.3-.7 4.7-1.1z"/><path fill="#FFCF74" d="M93.1 374.3c-1.1-1.6-2-3.3-2.8-4.9s-1.5-3.3-2.1-4.9c-1.2-3.3-2.1-6.5-2.8-9.7-1.3-6.5-1.8-12.9-1.5-19.3s1.2-12.8 3.1-19.2c.9-3.2 2.1-6.4 3.6-9.5.7-1.6 1.6-3.2 2.5-4.7s1.9-3.1 3.2-4.7c1.1 1.6 2 3.3 2.8 4.9s1.5 3.3 2.1 4.9c1.2 3.3 2.1 6.5 2.8 9.7 1.3 6.5 1.8 12.9 1.5 19.3s-1.3 12.8-3.1 19.2c-.9 3.2-2.1 6.4-3.6 9.5-.7 1.6-1.6 3.2-2.5 4.7s-1.9 3.1-3.2 4.7z"/><defs><path id="c" d="M93.1 374.3c-1.1-1.6-2-3.3-2.8-4.9s-1.5-3.3-2.1-4.9c-1.2-3.3-2.1-6.5-2.8-9.7-1.3-6.5-1.8-12.9-1.5-19.3s1.2-12.8 3.1-19.2c.9-3.2 2.1-6.4 3.6-9.5.7-1.6 1.6-3.2 2.5-4.7s1.9-3.1 3.2-4.7c1.1 1.6 2 3.3 2.8 4.9s1.5 3.3 2.1 4.9c1.2 3.3 2.1 6.5 2.8 9.7 1.3 6.5 1.8 12.9 1.5 19.3s-1.3 12.8-3.1 19.2c-.9 3.2-2.1 6.4-3.6 9.5-.7 1.6-1.6 3.2-2.5 4.7s-1.9 3.1-3.2 4.7z"/></defs><clipPath id="d"><use xlink:href="#c" overflow="visible"/></clipPath><path clip-path="url(#d)" fill="#F9AB43" d="M110.7 317.7l-.4-.4L95 336.1l.7-17.7 15.7-19.2-.3-.5-15.4 18.8.6-14.1h-.4l-.9 20.2L82 299l-.4.3 13.3 25.4-.7 17.5-13-24.7-.4.4 13.4 25.3-.8 17.5-13-24.6-.4.3 13.4 25.4-.3 7.6h.4l.6-13.9 15.8-19.3-.4-.4-15.3 18.8.7-17.6 15.8-19.3z"/><path opacity=".1" fill="#0046A0" d="M96.3 369.6c.9-1.6 1.7-3.2 2.5-4.7 1.5-3.2 2.7-6.3 3.6-9.5 1.9-6.4 2.9-12.8 3.1-19.2.3-6.4-.1-12.9-1.5-19.3-.7-3.2-1.6-6.5-2.8-9.7-.6-1.6-1.3-3.3-2.1-4.9-.8-1.6-1.7-3.3-2.8-4.9l-3.3 77c1.4-1.7 2.4-3.3 3.3-4.8z"/><g><path fill="#FFCF74" d="M92.6 373.3c-1.8-.3-3.5-.7-5-1.1-1.6-.5-3.1-1-4.5-1.5-2.9-1.1-5.5-2.4-8-3.8-4.9-2.8-9.1-6.2-12.9-10-3.7-3.8-6.9-7.9-9.4-12.6-1.2-2.3-2.3-4.8-3.1-7.5-.4-1.3-.8-2.7-1-4.1-.3-1.4-.5-2.9-.5-4.5 1.8.2 3.5.7 5.1 1.1s3.1 1 4.5 1.5c2.9 1.1 5.5 2.4 8 3.8 4.9 2.8 9.1 6.2 12.8 10 3.7 3.8 6.9 7.9 9.3 12.6 1.2 2.3 2.3 4.8 3.1 7.5.4 1.3.8 2.7 1 4.1.4 1.4.6 2.9.6 4.5z"/><defs><path id="e" d="M92.6 373.3c-1.8-.3-3.5-.7-5-1.1-1.6-.5-3.1-1-4.5-1.5-2.9-1.1-5.5-2.4-8-3.8-4.9-2.8-9.1-6.2-12.9-10-3.7-3.8-6.9-7.9-9.4-12.6-1.2-2.3-2.3-4.8-3.1-7.5-.4-1.3-.8-2.7-1-4.1-.3-1.4-.5-2.9-.5-4.5 1.8.2 3.5.7 5.1 1.1s3.1 1 4.5 1.5c2.9 1.1 5.5 2.4 8 3.8 4.9 2.8 9.1 6.2 12.8 10 3.7 3.8 6.9 7.9 9.3 12.6 1.2 2.3 2.3 4.8 3.1 7.5.4 1.3.8 2.7 1 4.1.4 1.4.6 2.9.6 4.5z"/></defs><clipPath id="f"><use xlink:href="#e" overflow="visible"/></clipPath><path clip-path="url(#f)" fill="#F9AB43" d="M71.2 331.1h-.5l.1 19.6-10.2-10.3-.1-20.1-.5-.1.1 19.7-8.2-8.3-.3.3 11.6 11.8-24.6-6.1-.1.4 25.3 6.4 10.1 10.2-24.6-6.1-.1.4 25.3 6.3 10.1 10.3-24.6-6.2-.1.5 25.3 6.3 4.4 4.5.4-.3-8-8.2-.1-20.1h-.6l.2 19.6-10.2-10.3-.1-20.2z"/><path opacity=".1" fill="#0046A0" d="M92.1 368.8c-.3-1.4-.6-2.8-1-4.1-.8-2.6-1.9-5.1-3.1-7.5-2.5-4.7-5.7-8.8-9.3-12.6-3.7-3.8-7.9-7.1-12.8-10-2.5-1.4-5.1-2.7-8-3.8-1.4-.6-2.9-1.1-4.5-1.5s-3.2-.9-5.1-1.1l44.4 45.2c-.1-1.7-.3-3.2-.6-4.6z"/></g><g><g fill="#EB725F"><path d="M117 417.8H69.6L64.7 368H121l-4 49.8z"/><path d="M62.2 368h61.4v8.4H62.2V368z"/></g><path opacity=".1" fill="#0046A0" d="M65.6 376.4h54.7l-1.2 14.3-53.1-9.6-.4-4.7z"/></g></g><g><path fill="#FFCF74" d="M222.7 231.4c-.2-.3-.6-.5-1-.6-.3-.1-.5-.1-.7-.1-.8-.1-1.5-.3-2.3-.4-.4-1.6-1.1-3.2-1.9-4.6.6-.8 1.2-1.6 1.7-2.4 1.3-2.1-.4-3.6-1.8-5s-2.8-3-4.9-1.8c-.8.5-1.6 1.1-2.4 1.7-1.5-.8-3-1.5-4.6-1.9-.1-1-.3-2-.5-2.9-.6-2.4-2.9-2.2-4.8-2.2s-4.1-.2-4.8 2.2c-.3.9-.4 1.9-.5 2.9-1.6.4-3.2 1.1-4.6 1.9-.8-.6-1.6-1.2-2.4-1.7-2.1-1.3-3.6.4-5 1.8s-3 2.8-1.8 4.9c.5.8 1.1 1.6 1.7 2.4-.8 1.5-1.5 3-1.9 4.6-1 .1-2 .3-2.9.5-2.4.6-2.2 2.9-2.2 4.8s-.2 4.1 2.2 4.8c.9.3 1.9.4 2.9.5.4 1.6 1.1 3.2 1.9 4.6-.6.8-1.2 1.6-1.7 2.4-1.3 2.1.4 3.6 1.8 5s2.8 3 4.9 1.8c.8-.5 1.6-1.1 2.4-1.7 1.5.8 3 1.5 4.6 1.9.1 1 .3 2 .5 2.9.6 2.4 2.9 2.2 4.8 2.2s4.1.2 4.8-2.2c.3-.9.4-1.9.5-2.9 1.6-.4 3.2-1.1 4.6-1.9.8.6 1.6 1.2 2.4 1.7 2.1 1.3 3.6-.4 5-1.8s3-2.8 1.8-4.9c-.5-.8-1.1-1.6-1.7-2.4.8-1.5 1.5-3 1.9-4.6 2.2-.3 4.9-.6 5.1-3.3.1-1 0-2 0-3 0-1.3-.2-2.4-1.1-3.2zm-23.3 11.5c-3 0-5.8-1.9-6.8-4.7-1.1-2.9-.2-6.2 2.2-8.2 2.3-2 5.8-2.2 8.4-.7 2.6 1.5 4.1 4.7 3.5 7.7-.9 3.4-3.9 5.8-7.3 5.9zm76-58.7c-.6-2.2-1-4.9-3.8-4.8-1.3 0-2.7.2-4 .3-1.1-2.1-2.5-3.9-4.2-5.6.5-1.3 1-2.5 1.4-3.8.9-2.7-1.7-3.9-3.6-5s-4.1-2.8-6.1-.7c-.9 1-1.8 2-2.6 3.1-2.3-.6-4.6-1-6.9-1-.5-1.3-1.1-2.5-1.7-3.7-1.3-2.5-4-1.5-6.1-1-2.2.6-4.9 1-4.8 3.8 0 1.3.2 2.7.3 4-2.1 1.1-3.9 2.5-5.6 4.2-1.3-.5-2.5-1-3.8-1.4-2.7-.9-3.9 1.7-5 3.6-1.1 1.9-2.8 4.1-.7 6.1 1 .9 2 1.8 3.1 2.6-.6 2.3-1 4.6-1 6.9-1.3.5-2.5 1.1-3.7 1.7-2.5 1.3-1.5 4-1 6.1.6 2.2 1 4.9 3.8 4.8 1.3 0 2.7-.2 4-.3 1.1 2.1 2.5 3.9 4.2 5.6-.5 1.3-1 2.5-1.4 3.8-.9 2.7 1.7 3.9 3.6 5 1.9 1.1 4.1 2.8 6.1.7.9-1 1.8-2 2.6-3.1 2.3.6 4.6 1 6.9 1 .5 1.3 1.1 2.5 1.7 3.7 1.3 2.5 4 1.5 6.1 1 2.2-.6 4.9-1 4.8-3.8 0-1.3-.2-2.7-.3-4 2.1-1.1 3.9-2.5 5.6-4.2 2.5 1.1 5.7 2.7 7.5.1.7-1 1.3-2.1 1.9-3.2.9-1.4 1.5-2.8.8-4.2-.1-.3-.2-.6-.6-.9-.1-.2-.3-.3-.4-.4-.9-.8-1.8-1.6-2.7-2.3.6-2.3 1-4.6 1-7 1.3-.5 2.5-1.1 3.7-1.7 2.4-1.2 1.4-3.9.9-6zm-37.6 20.3c-5.1-3.1-8.1-9.2-7-15.2 1.2-6.2 6.1-11 12.3-11.9 6.1-.9 12.2 2.2 15.1 7.6 2.9 5.3 2.1 12.2-1.9 16.7-4.7 5.2-12.5 6.3-18.5 2.8z"/></g><g><path fill="#F9AB43" d="M356.4 293.7h-75.5v129.8h112.7v-92.3l-37.2-37.5z"/><path fill="#FFCF74" d="M356.4 293.7l37.3 37.3h-37.3v-37.3z"/><g fill="#FFF"><path d="M368.1 395.7h-61.7c-3.5 0-6.2-1.5-7.5-4.1s-1-5.9.9-9l30.1-49.6c1.8-3 4.5-4.8 7.4-4.8s5.6 1.7 7.4 4.8l30.1 49.6c1.9 3.1 2.2 6.4.9 9-1.4 2.6-4.1 4.1-7.6 4.1zm-62.9-9.3c-.7 1.1-.7 1.8-.6 1.9s.6.4 1.8.4h61.7c1.2 0 1.7-.3 1.8-.4 0-.1 0-.7-.7-1.8l-30.1-49.6c-.6-1-1.3-1.6-1.9-1.6s-1.3.6-1.9 1.6l-30.1 49.5z"/><path d="M335.3 382.3c-.5-.5-.7-1.2-.7-2s.2-1.5.7-2 1.1-.8 1.8-.8 1.4.3 1.9.8.8 1.2.8 2-.3 1.5-.8 2-1.1.8-1.9.8c-.6 0-1.3-.3-1.8-.8zm-1.5-33h6.9l-1.3 23.6h-4.3l-1.3-23.6z"/></g></g><g fill="#B3C9F9"><path d="M111.7 148h-11.3v-11.4H77.2v39.8h34.5V148zm-16.6 18.4c-.4.4-1 .6-1.6.6s-1.1-.2-1.6-.6c-.4-.4-.6-.9-.6-1.5s.2-1.1.6-1.6c.4-.4.9-.6 1.6-.6.6 0 1.1.2 1.6.6.4.4.6.9.6 1.5 0 .7-.2 1.2-.6 1.6zm-.5-5.1h-2.1c-.6 0-1.1-.4-1.1-1l-1.1-13.7c-.1-.6.5-1.2 1.1-1.2h4.4c.6 0 1.2.6 1.1 1.2l-1.2 13.7c-.1.6-.5 1-1.1 1z"/><path d="M102.3 137.6v8.5h8.4l-8.4-8.5zm195.6-27.3h-15.1V95.1h-31v53.2h46.1v-38zm-22.2 24.6c-.5.5-1.3.8-2.1.8s-1.5-.3-2.1-.8c-.5-.5-.8-1.2-.8-2s.3-1.5.8-2.1c.5-.5 1.2-.8 2.1-.8.8 0 1.5.3 2.1.8.5.5.8 1.2.8 2 0 .9-.3 1.6-.8 2.1zm-.7-6.8h-2.8c-.8 0-1.4-.6-1.5-1.4l-1.4-18.3c-.1-.9.6-1.6 1.5-1.6h5.8c.9 0 1.5.7 1.5 1.6l-1.6 18.3c-.1.8-.7 1.4-1.5 1.4z"/><path d="M285.3 96.4v11.4h11.2l-11.2-11.4zM189.4 88.9h-8.2v-8.3h-16.8v28.9h25.1l-.1-20.6zm-12.1 13.3c-.3.3-.7.5-1.1.5-.5 0-.8-.2-1.1-.5s-.5-.7-.5-1.1c0-.5.1-.8.5-1.1.3-.3.7-.4 1.1-.4.4 0 .8.2 1.1.5s.5.7.5 1.1-.2.7-.5 1zm3.2-7.2c-.3.4-.7.8-1.3 1.2-.4.3-.7.5-.9.7s-.3.3-.4.6c-.1.2-.1.5-.1.8v.3h-3v-.4c0-1.2.5-2.1 1.4-2.7l.4-.3c.4-.3.7-.5.9-.7s.2-.4.2-.7c0-.7-.6-1-1.7-1-.5 0-1 .1-1.6.2-.5.1-1.1.3-1.6.6V91c1-.5 2.2-.7 3.5-.7 1.4 0 2.5.3 3.3.9s1.2 1.4 1.2 2.4c.1.5 0 1-.3 1.4z"/><path d="M182.6 81.3v6.2h6.1l-6.1-6.2z"/></g><g><path opacity=".15" fill="#4B6FEF" d="M121.8 95.5c-1.9 0-3.6.6-5 1.6-1.8-2.9-5-4.7-8.6-4.7-5.6 0-10.2 4.5-10.2 10.1-.3-.1-.7-.1-1-.1-2.9 0-5.2 2.3-5.2 5.2 0 2.9 2.3 5.2 5.2 5.2h24.9c4.8 0 8.6-3.9 8.6-8.6-.1-4.8-3.9-8.7-8.7-8.7z"/><path fill="#B3C9F9" d="M115.9 108l-1.4 1.4-3.4-3.4-3.4 3.4-1.4-1.4 3.4-3.4-3.4-3.4 1.4-1.4 3.4 3.4 3.4-3.4 1.4 1.4-3.4 3.4 3.4 3.4z"/><path opacity=".15" fill="#4B6FEF" d="M191.7 156c-2.4 0-4.5.8-6.3 2-2.3-3.6-6.3-6-10.8-6-7 0-12.8 5.7-12.8 12.7-.4-.1-.9-.1-1.3-.1-3.6 0-6.5 2.9-6.5 6.5s2.9 6.5 6.5 6.5h31.2c6 0 10.8-4.9 10.8-10.8s-4.8-10.8-10.8-10.8z"/><path fill="#B3C9F9" d="M184.3 171.6l-1.8 1.8-4.2-4.2-4.3 4.2-1.8-1.8 4.3-4.2-4.3-4.3 1.8-1.8 4.3 4.3 4.2-4.3 1.8 1.8-4.3 4.3 4.3 4.2z"/><path opacity=".15" fill="#4B6FEF" d="M401.6 103.1c-4.1 0-7.8 1.3-10.9 3.5-3.9-6.2-10.8-10.3-18.7-10.3-12.2 0-22.1 9.8-22.2 22-.7-.2-1.5-.2-2.3-.2-6.2 0-11.3 5-11.3 11.3 0 6.3 5 11.3 11.3 11.3h54.1c10.4 0 18.8-8.4 18.8-18.8s-8.4-18.8-18.8-18.8z"/><path fill="#B3C9F9" d="M388.8 130.3l-3.1 3-7.4-7.4-7.4 7.4-3.1-3 7.4-7.4-7.4-7.4 3.1-3.1 7.4 7.4 7.4-7.4 3.1 3.1-7.4 7.4 7.4 7.4z"/></g></svg>