<svg xmlns="http://www.w3.org/2000/svg" xmlns:xlink="http://www.w3.org/1999/xlink" viewBox="0 0 500 500"><g opacity=".2" fill="#4B6FEF"><path d="M122.9 165.2h-6.2v-6.3h-4.4v6.3H106v4.4h6.3v6.3h4.4v-6.3h6.2zM72.5 118.2h-4.6v-4.6h-3.2v4.6h-4.5v3.2h4.5v4.5h3.2v-4.5h4.6zM287.8 102.5h-4.5V98H280v4.5h-4.5v3.2h4.5v4.6h3.3v-4.6h4.5zM431.7 190.5h-4.5V186h-3.3v4.5h-4.5v3.2h4.5v4.5h3.3v-4.5h4.5zM437.9 142.1h-6.2v-6.2h-4.5v6.2H421v4.5h6.2v6.2h4.5v-6.2h6.2zM302.8 157.5h-6.3v-6.2h-4.4v6.2h-6.3v4.4h6.3v6.3h4.4v-6.3h6.3zM56.5 186.9h-6.2v-6.3h-4.5v6.3h-6.2v4.4h6.2v6.3h4.5v-6.3h6.2zM465.1 313.1h-4.6v-4.5h-3.2v4.5h-4.5v3.2h4.5v4.6h3.2v-4.6h4.6z"/><g><circle cx="182.3" cy="82.5" r="3.9"/><path d="M344.2 96.8c0 1.1-.9 2.1-2.1 2.1-1.1 0-2.1-.9-2.1-2.1 0-1.1.9-2.1 2.1-2.1 1.1.1 2.1 1 2.1 2.1zM433.4 108c0 2.2-1.8 3.9-3.9 3.9-2.2 0-3.9-1.8-3.9-3.9 0-2.2 1.8-3.9 3.9-3.9s3.9 1.8 3.9 3.9zM257.6 118c0 2.2-1.8 3.9-3.9 3.9-2.2 0-3.9-1.8-3.9-3.9 0-2.2 1.8-3.9 3.9-3.9s3.9 1.7 3.9 3.9zM41.6 225.8c0 1.1-.9 2.1-2.1 2.1-1.1 0-2.1-.9-2.1-2.1 0-1.1.9-2.1 2.1-2.1 1.2 0 2.1 1 2.1 2.1zM479.5 297c0 2.2-1.8 3.9-3.9 3.9-2.2 0-3.9-1.8-3.9-3.9 0-2.2 1.8-3.9 3.9-3.9 2.2 0 3.9 1.7 3.9 3.9z"/><circle cx="64.9" cy="161.7" r="3.9"/></g></g><ellipse opacity=".2" fill="#9DA0AC" cx="250" cy="390.5" rx="231.5" ry="30.9"/><path fill="#F9AB43" d="M440.8 299.6s-42.6 18.5-54.9 34.7-2.2 35.4-2.2 35.4 20.9 5.9 34.2-9.3c13.4-15.3 22.9-60.8 22.9-60.8z"/><defs><path id="a" d="M440.8 299.6s-42.6 18.5-54.9 34.7-2.2 35.4-2.2 35.4 20.9 5.9 34.2-9.3c13.4-15.3 22.9-60.8 22.9-60.8z"/></defs><clipPath id="b"><use xlink:href="#a" overflow="visible"/></clipPath><path clip-path="url(#b)" fill="#EB725F" d="M452.4 326.2c1.8-.3 3.5-.5 5.3-.8.9-.1.8-1.6-.1-1.4l-37.2 5.7c-1.2.2-2.3.4-3.5.5 1-1.2 1.9-2.4 2.9-3.6 3.4-4.2 6.8-8.3 10.1-12.5l36.9-5.7c1.8-.3 3.5-.5 5.3-.8.9-.1.8-1.6-.1-1.4l-37.2 5.7c-1.2.2-2.3.4-3.5.5 1.9-2.3 3.7-4.6 5.6-6.9 1.9-2.3 3.8-4.6 5.7-7 .9-1.1 1.9-2.1 2.7-3.3 0-.1.1-.1.1-.1.6-.7-.5-1.6-1.1-.9-2.3 2.8-4.5 5.6-6.8 8.3-2.4 3-4.8 6-7.3 8.9-.6-11.9-1.2-23.8-1.9-35.8-.1-1.8-.2-3.6-.3-5.3 0-.9-1.5-.8-1.4.1.6 12.5 1.3 25.1 1.9 37.6.1 1.7.2 3.3.3 5-2.6 3.2-5.1 6.3-7.7 9.5-1.8 2.2-3.5 4.4-5.3 6.5-.6-11.9-1.2-23.8-1.9-35.8-.1-1.8-.2-3.6-.3-5.3 0-.9-1.5-.8-1.4.1.6 12.5 1.3 25.1 1.9 37.6.1 1.7.2 3.3.3 5-4.3 5.3-8.7 10.7-13 16-.6-11.9-1.2-23.8-1.9-35.8-.1-1.8-.2-3.6-.3-5.3 0-.9-1.5-.8-1.4.1.6 12.5 1.3 25.1 1.9 37.6.1 1.7.2 3.3.3 5-4.3 5.3-8.7 10.7-13 16-.6-11.9-1.2-23.8-1.9-35.8-.1-1.8-.2-3.6-.3-5.3 0-.9-1.5-.8-1.4.1.6 12.5 1.3 25.1 1.9 37.6.1 1.7.2 3.3.3 5-.5.6-1 1.3-1.5 1.9-1.9 2.3-3.8 4.6-5.7 7-.9 1.1-1.9 2.1-2.7 3.3 0 .1-.1.1-.1.1-.6.7.5 1.6 1.1.9 2.3-2.8 4.5-5.6 6.8-8.3 1.1-1.3 2.1-2.6 3.2-3.9l36.9-5.7c1.8-.3 3.5-.5 5.3-.8.9-.1.8-1.6-.1-1.4l-37.2 5.7c-1.2.2-2.3.4-3.5.5 3.9-4.8 7.9-9.7 11.8-14.5l1.2-1.5 36.9-5.7c1.8-.3 3.5-.5 5.3-.8.9-.1.8-1.6-.1-1.4l-37.2 5.7c-1.2.2-2.3.4-3.5.5 4.3-5.3 8.7-10.7 13-16 12.3-1.4 24.6-3.3 36.9-5.2z"/><path opacity=".1" fill="#0046A0" d="M432.9 329.2c-1.4 2-3 4.1-4.6 6.1-14.1 17.4-31.7 28.2-46.3 30.1.9 2.7 1.8 4.4 1.8 4.4s20.9 5.9 34.2-9.3c5.9-6.8 11-19.4 14.9-31.3z"/><path fill="#EB725F" d="M475.6 340.7s-44.4.4-63 8.4c-18.6 8.1-20.9 25.3-20.9 25.3s13.6 10.8 32.6 3.8c19-7.1 51.3-37.5 51.3-37.5z"/><defs><path id="c" d="M475.6 340.7s-44.4.4-63 8.4c-18.6 8.1-20.9 25.3-20.9 25.3s13.6 10.8 32.6 3.8c19-7.1 51.3-37.5 51.3-37.5z"/></defs><clipPath id="d"><use xlink:href="#c" overflow="visible"/></clipPath><path clip-path="url(#d)" fill="#FFCF74" d="M470.5 363.8c1.6.3 3.1.7 4.7 1 .8.2 1.5-.9.6-1.1-11-2.4-22-4.9-33-7.3-1-.2-2.1-.5-3.1-.7 1.4-.6 2.8-1.1 4.3-1.7 5-2 9.9-4 14.9-6 10.9 2.4 21.8 4.8 32.8 7.3 1.6.3 3.1.7 4.7 1 .8.2 1.5-.9.6-1.1-11-2.4-22-4.9-33-7.3-1-.2-2.1-.5-3.1-.7 2.8-1.1 5.5-2.2 8.3-3.3 2.8-1.1 5.5-2.2 8.3-3.3 1.3-.5 2.7-.9 3.9-1.6.1 0 .1 0 .2-.1.9-.3.5-1.3-.4-1-3.3 1.3-6.7 2.7-10 4-3.6 1.4-7.1 2.9-10.7 4.3 6-8.9 11.9-17.8 17.9-26.8.9-1.3 1.8-2.7 2.7-4 .5-.7-.8-1-1.2-.3-6.3 9.4-12.5 18.8-18.8 28.1-.8 1.3-1.7 2.5-2.5 3.8-3.8 1.5-7.6 3-11.4 4.6-2.6 1-5.2 2.1-7.8 3.1 6-8.9 11.9-17.8 17.9-26.8.9-1.3 1.8-2.7 2.7-4 .5-.7-.8-1-1.2-.3-6.3 9.4-12.5 18.8-18.8 28.1-.8 1.3-1.7 2.5-2.5 3.8-6.4 2.6-12.8 5.1-19.2 7.7 6-8.9 11.9-17.8 17.9-26.8.9-1.3 1.8-2.7 2.7-4 .5-.7-.8-1-1.2-.3-6.3 9.4-12.5 18.8-18.8 28.1-.8 1.3-1.7 2.5-2.5 3.8-6.4 2.6-12.8 5.1-19.2 7.7 6-8.9 11.9-17.8 17.9-26.8.9-1.3 1.8-2.7 2.7-4 .5-.7-.8-1-1.2-.3-6.3 9.4-12.5 18.8-18.8 28.1-.8 1.3-1.7 2.5-2.5 3.8-.8.3-1.5.6-2.3.9-2.8 1.1-5.5 2.2-8.3 3.3-1.3.5-2.7.9-3.9 1.6-.1 0-.1 0-.2.1-.9.3-.5 1.3.4 1 3.3-1.3 6.7-2.7 10-4 1.6-.6 3.1-1.3 4.7-1.9 10.9 2.4 21.8 4.8 32.8 7.3 1.6.3 3.1.7 4.7 1 .8.2 1.5-.9.6-1.1-11-2.4-22-4.9-33-7.3-1-.2-2.1-.5-3.1-.7 5.8-2.3 11.6-4.6 17.3-7 .6-.2 1.2-.5 1.8-.7 10.9 2.4 21.8 4.8 32.8 7.3 1.6.3 3.1.7 4.7 1 .8.2 1.5-.9.6-1.1-11-2.4-22-4.9-33-7.3-1-.2-2.1-.5-3.1-.7 6.4-2.6 12.8-5.1 19.2-7.7 10.7 2.4 21.6 4.8 32.5 7.3z"/><path opacity=".1" fill="#0046A0" d="M453.2 359.9c-2.3 1-4.6 2.1-7 3-20.8 8.3-40.8 10.8-53.6 7.7-.8 2.3-1 3.8-1 3.8s13.6 10.8 32.6 3.8c8.5-3.1 19.4-10.7 29-18.3z"/><g><path fill="#F9AB43" d="M31 248.4s26.2 38.4 44.4 47.4 35.2-4.5 35.2-4.5 1.9-21.6-15.6-31.9c-17.5-10.2-64-11-64-11z"/><defs><path id="e" d="M31 248.4s26.2 38.4 44.4 47.4 35.2-4.5 35.2-4.5 1.9-21.6-15.6-31.9c-17.5-10.2-64-11-64-11z"/></defs><clipPath id="f"><use xlink:href="#e" overflow="visible"/></clipPath><path clip-path="url(#f)" fill="#EB725F" d="M54.9 232.1c-.6-1.7-1.2-3.4-1.8-5-.3-.9-1.7-.5-1.4.4 4.2 11.8 8.4 23.6 12.6 35.5l1.2 3.3c-1.3-.7-2.7-1.5-4-2.2-4.7-2.5-9.4-5.1-14.1-7.6-4.2-11.7-8.3-23.4-12.5-35.2-.6-1.7-1.2-3.4-1.8-5-.3-.9-1.7-.5-1.4.4 4.2 11.8 8.4 23.6 12.6 35.5l1.2 3.3-7.8-4.2c-2.6-1.4-5.3-2.8-7.9-4.3-1.2-.7-2.4-1.5-3.7-2-.1 0-.1-.1-.2-.1-.8-.4-1.5.8-.7 1.3 3.2 1.7 6.3 3.4 9.5 5.1 3.4 1.8 6.8 3.6 10.1 5.5-11.6 2.8-23.2 5.7-34.8 8.5-1.7.4-3.5.8-5.2 1.3-.9.2-.5 1.6.4 1.4 12.2-3 24.4-6 36.6-8.9 1.6-.4 3.3-.8 4.9-1.2 3.6 1.9 7.2 3.9 10.8 5.8 2.5 1.3 4.9 2.7 7.4 4-11.6 2.8-23.2 5.7-34.8 8.5-1.7.4-3.5.8-5.2 1.3-.9.2-.5 1.6.4 1.4 12.2-3 24.4-6 36.5-8.9 1.6-.4 3.3-.8 4.9-1.2 6.1 3.3 12.1 6.5 18.2 9.8-11.6 2.8-23.2 5.7-34.8 8.5-1.7.4-3.5.8-5.2 1.3-.9.2-.5 1.6.4 1.4 12.2-3 24.4-6 36.5-8.9 1.6-.4 3.3-.8 4.9-1.2 6.1 3.3 12.1 6.5 18.2 9.8-11.6 2.8-23.2 5.7-34.8 8.5-1.7.4-3.5.8-5.2 1.3-.9.2-.5 1.6.4 1.4 12.2-3 24.4-6 36.6-8.9 1.6-.4 3.3-.8 4.9-1.2l2.1 1.2c2.6 1.4 5.3 2.8 7.9 4.3 1.2.7 2.4 1.5 3.7 2 .1 0 .1.1.2.1.8.4 1.5-.8.7-1.3-3.2-1.7-6.3-3.4-9.5-5.1l-4.5-2.4c-4.2-11.7-8.3-23.4-12.5-35.2-.6-1.7-1.2-3.4-1.8-5-.3-.9-1.7-.5-1.4.4 4.2 11.8 8.4 23.6 12.6 35.5l1.2 3.3c-5.5-3-11-5.9-16.4-8.9-.6-.3-1.2-.6-1.7-.9-4.2-11.7-8.3-23.4-12.5-35.2-.6-1.7-1.2-3.4-1.8-5-.3-.9-1.7-.5-1.4.4 4.2 11.8 8.4 23.6 12.6 35.5l1.2 3.3c-6.1-3.3-12.1-6.5-18.2-9.8-4.1-12.2-8.2-24-12.4-35.7z"/><path opacity=".1" fill="#0046A0" d="M61.5 250.7c2.3 1 4.5 2.1 6.8 3.4C88 264.7 102 280 106.6 293.9c2.5-1.4 4-2.6 4-2.6s1.9-21.6-15.6-31.9c-7.7-4.4-21-7.1-33.5-8.7z"/><g><path fill="#EB725F" d="M64.8 206.6s8.6 43.5 20.1 60.3c11.4 16.8 28.7 15.8 28.7 15.8s8.1-15.3-2.4-32.7-46.4-43.4-46.4-43.4z"/><defs><path id="g" d="M64.8 206.6s8.6 43.5 20.1 60.3c11.4 16.8 28.7 15.8 28.7 15.8s8.1-15.3-2.4-32.7-46.4-43.4-46.4-43.4z"/></defs><clipPath id="h"><use xlink:href="#g" overflow="visible"/></clipPath><path clip-path="url(#h)" fill="#FFCF74" d="M88.4 207.3c0-1.6.1-3.2.1-4.8 0-.8-1.2-1.3-1.2-.4-.3 11.3-.7 22.5-1 33.8 0 1.1-.1 2.1-.1 3.2-.8-1.3-1.7-2.6-2.5-3.9L75 221.7c.3-11.2.7-22.4 1-33.5 0-1.6.1-3.2.1-4.8 0-.8-1.2-1.3-1.2-.4-.3 11.3-.7 22.5-1 33.8 0 1.1-.1 2.1-.1 3.2l-4.8-7.5-4.8-7.5c-.7-1.2-1.4-2.5-2.3-3.6 0 0-.1-.1-.1-.2-.5-.8-1.4-.2-.9.6 1.9 3 3.9 6 5.8 9.1 2.1 3.2 4.1 6.5 6.2 9.7-9.9-4.2-19.8-8.4-29.6-12.6-1.5-.6-2.9-1.2-4.4-1.9-.8-.3-.9.9-.1 1.3 10.4 4.4 20.8 8.8 31.1 13.2l4.2 1.8c2.2 3.4 4.4 6.9 6.6 10.3 1.5 2.4 3 4.7 4.5 7.1-9.9-4.2-19.8-8.4-29.6-12.6-1.5-.6-2.9-1.2-4.4-1.9-.8-.3-.9.9-.1 1.3 10.4 4.4 20.8 8.8 31.1 13.2l4.2 1.8L97.5 259c-9.9-4.2-19.8-8.4-29.6-12.6-1.5-.6-2.9-1.2-4.4-1.9-.8-.3-.9.9-.1 1.3 10.4 4.4 20.8 8.8 31.1 13.2l4.2 1.8 11.1 17.4c-9.9-4.2-19.8-8.4-29.6-12.6-1.5-.6-2.9-1.2-4.4-1.9-.8-.3-.9.9-.1 1.3 10.4 4.4 20.8 8.8 31.1 13.2l4.2 1.8c.4.7.9 1.4 1.3 2.1l4.8 7.5c.7 1.2 1.4 2.5 2.3 3.6 0 0 .1.1.1.2.5.8 1.4.2.9-.6-1.9-3-3.9-6-5.8-9.1-.9-1.4-1.8-2.8-2.7-4.3.3-11.2.7-22.4 1-33.5 0-1.6.1-3.2.1-4.8 0-.8-1.2-1.3-1.2-.4-.3 11.3-.7 22.5-1 33.8 0 1.1-.1 2.1-.1 3.2-3.4-5.2-6.7-10.5-10.1-15.7-.4-.6-.7-1.1-1.1-1.7.3-11.2.7-22.4 1-33.5 0-1.6.1-3.2.1-4.8 0-.8-1.2-1.3-1.2-.4-.3 11.3-.7 22.5-1 33.8 0 1.1-.1 2.1-.1 3.2l-11.1-17.4c.6-11.6.9-22.8 1.2-33.9z"/><path opacity=".1" fill="#0046A0" d="M87.9 225c1.5 2 2.9 4.1 4.3 6.3 12.1 18.8 18.3 38.1 17.6 51.2 2.4.3 3.9.2 3.9.2s8.1-15.3-2.4-32.7c-4.7-7.7-14.2-17-23.4-25z"/></g></g><g><path fill="#6E7FDD" d="M399.9 384.2c0 3-2.5 5.5-5.5 5.5H105.6c-3 0-5.5-2.5-5.5-5.5V197.4c0-3 2.5-5.5 5.5-5.5h288.8c3 0 5.5 2.5 5.5 5.5v186.8z"/><path fill="#D0DBF7" d="M114.5 207.3h271.1v172.3H114.5z"/><path fill="#6E7FDD" d="M80.6 371.6v15.9c0 3.4 2.8 6.2 6.2 6.2h326.3c3.4 0 6.2-2.8 6.2-6.2v-15.9H80.6z"/><path fill="#92A6F4" d="M213.1 370.8v11.4c0 1 .8 1.8 1.8 1.8H285c1 0 1.8-.8 1.8-1.8v-11.4h-73.7z"/><g><path fill="#FFF" d="M129.9 221.9h235.2v136H129.9z"/><path fill="#E2E6FF" d="M129.9 221.9h235.2V235H129.9z"/><g><path fill="#EB725F" d="M141.4 228.8c0 1.7-1.3 3-3 3s-3-1.3-3-3 1.3-3 3-3c1.6 0 3 1.3 3 3z"/><path fill="#F9AB43" d="M151.5 228.8c0 1.7-1.3 3-3 3s-3-1.3-3-3 1.3-3 3-3 3 1.3 3 3z"/><path fill="#6E7FDD" d="M161.6 228.8c0 1.7-1.3 3-3 3s-3-1.3-3-3 1.3-3 3-3 3 1.3 3 3z"/></g><g fill="#EB725F"><path d="M274.7 312.6L259 296.9l15.7-15.7c1.1-1.1 1.1-2.8 0-3.9l-4.6-4.6c-1.1-1.1-2.8-1.1-3.9 0l-15.7 15.7-15.7-15.7c-1.1-1.1-2.8-1.1-3.9 0l-4.6 4.6c-1.1 1.1-1.1 2.8 0 3.9l15.7 15.7-15.7 15.7c-1.1 1.1-1.1 2.8 0 3.9l4.6 4.6c1.1 1.1 2.8 1.1 3.9 0l15.7-15.7 15.7 15.7c1.1 1.1 2.8 1.1 3.9 0l4.6-4.6c1.1-1 1.1-2.8 0-3.9z"/><path d="M250 350.7c-29.6 0-53.7-24.1-53.7-53.7s24.1-53.7 53.7-53.7 53.7 24.1 53.7 53.7-24.1 53.7-53.7 53.7zm0-98c-24.4 0-44.3 19.9-44.3 44.3s19.9 44.3 44.3 44.3 44.3-19.9 44.3-44.3c0-24.5-19.9-44.3-44.3-44.3z"/></g></g></g><g><path fill="#6E7FDD" d="M423.5 166.5c-.9 0-1.8.2-2.5.5-.3-1.7-.9-3.2-1.9-4.6.7-.3 1.4-.8 2.1-1.4 1.6-1.6 2.2-3.6 1.3-4.5-.9-.9-2.9-.3-4.5 1.3-.7.7-1.1 1.4-1.4 2.1-1.3-1-2.9-1.6-4.5-1.9.3-.7.5-1.6.5-2.5 0-2.3-1-4.1-2.2-4.1s-2.2 1.8-2.2 4.1c0 .9.2 1.8.5 2.5-1.7.3-3.2.9-4.6 1.9-.3-.7-.8-1.4-1.4-2.1-1.6-1.6-3.6-2.2-4.5-1.3-.9.9-.3 2.9 1.3 4.5.7.7 1.4 1.1 2.1 1.4-1 1.3-1.6 2.9-1.9 4.6-.7-.3-1.6-.5-2.5-.5-2.3 0-4.1 1-4.1 2.2s1.8 2.2 4.1 2.2c.9 0 1.8-.2 2.5-.5.3 1.7.9 3.2 1.9 4.6-.7.3-1.4.8-2.1 1.4-1.6 1.6-2.2 3.6-1.3 4.5.9.9 2.9.3 4.5-1.3.7-.7 1.1-1.4 1.4-2.1 1.3 1 2.9 1.6 4.5 1.9-.3.7-.5 1.6-.5 2.5 0 2.3 1 4.1 2.2 4.1s2.2-1.8 2.2-4.1c0-.9-.2-1.8-.5-2.5 1.7-.3 3.2-.9 4.6-1.9.3.7.8 1.4 1.4 2.1 1.6 1.6 3.6 2.2 4.5 1.3.9-.9.3-2.9-1.3-4.5-.7-.7-1.4-1.1-2.1-1.4 1-1.3 1.6-2.9 1.9-4.6.7.3 1.6.5 2.5.5 2.3 0 4.1-1 4.1-2.2s-1.8-2.2-4.1-2.2zm-13.2 9.3c-3.9 0-7.1-3.2-7.1-7.1 0-3.9 3.2-7.1 7.1-7.1s7.1 3.2 7.1 7.1-3.1 7.1-7.1 7.1zM398.8 142.5c-1.3-.5-2.5-.7-3.6-.7.5-2.4.5-4.9-.1-7.2 1.1 0 2.4-.2 3.6-.8 3-1.3 4.9-3.7 4.2-5.3s-3.7-1.9-6.7-.7c-1.3.5-2.3 1.3-3.1 2.1-1.3-2-3-3.7-5.1-5 .8-.8 1.5-1.8 2-3.1 1.2-3 .9-6-.8-6.7-1.7-.7-4 1.3-5.2 4.3-.5 1.3-.7 2.5-.7 3.6-2.4-.5-4.9-.5-7.2.1 0-1.1-.2-2.4-.8-3.6-1.3-3-3.7-4.9-5.3-4.2s-1.9 3.7-.7 6.7c.5 1.3 1.3 2.3 2.1 3.1-2 1.3-3.7 3-5 5.1-.8-.8-1.8-1.5-3.1-2-3-1.2-6-.9-6.7.8-.7 1.7 1.3 4 4.3 5.2 1.3.5 2.5.7 3.6.7-.5 2.4-.5 4.9.1 7.2-1.1 0-2.4.2-3.6.8-3 1.3-4.9 3.7-4.2 5.3s3.7 1.9 6.7.7c1.3-.5 2.3-1.3 3.1-2.1 1.3 2 3 3.7 5.1 5-.8.8-1.5 1.8-2 3.1-1.2 3-.9 6 .8 6.7 1.7.7 4-1.3 5.2-4.3.5-1.3.7-2.5.7-3.6 2.4.5 4.8.5 7.1-.1 0 1.1.2 2.4.8 3.6 1.3 3 3.7 4.9 5.3 4.2s1.9-3.7.7-6.7c-.5-1.3-1.3-2.3-2.1-3.1 2-1.3 3.7-3 5-5.1.8.8 1.8 1.5 3.1 2 3 1.2 6 .9 6.7-.8.8-1.7-1.1-4-4.2-5.2zm-22.8 5.4c-5.3-2.1-7.9-8.1-5.7-13.4 2.1-5.3 8.1-7.9 13.4-5.7 5.3 2.1 7.9 8.1 5.7 13.4-2.1 5.3-8.1 7.9-13.4 5.7z"/><path fill="#EB725F" d="M259.5 142.1l-2.9.7c-.1-.3-.3-.6-.4-.9l2.2-2c1.1-1 1.2-2.8.2-3.9l-.4-.5c-1-1.1-2.8-1.2-3.9-.2l-2.2 2-.9-.6.9-2.8c.4-1.4-.4-3-1.8-3.4l-.6-.2c-1.4-.4-3 .4-3.4 1.8l-.9 2.8h-1l-.7-2.9c-.3-1.5-1.8-2.4-3.3-2.1l-.6.1c-1.5.3-2.4 1.8-2.1 3.3l.7 2.9c-.3.1-.6.3-.9.4l-2-2.2c-1-1.1-2.8-1.2-3.9-.2l-.5.4c-1.1 1-1.2 2.8-.2 3.9l2 2.2-.6.9-2.8-.9c-1.4-.4-3 .4-3.4 1.8l-.2.6c-.4 1.4.4 3 1.8 3.4l2.8.9v1l-2.9.7c-1.5.3-2.4 1.8-2.1 3.3l.1.6c.3 1.5 1.8 2.4 3.3 2.1l2.9-.7c.1.3.3.6.4.9l-2.2 2c-1.1 1-1.2 2.8-.2 3.9l.4.5c1 1.1 2.8 1.2 3.9.2l2.2-2 .9.6-.9 2.8c-.4 1.4.4 3 1.8 3.4l.6.2c1.4.4 3-.4 3.4-1.8l.9-2.8h1l.7 2.9c.3 1.5 1.8 2.4 3.3 2.1l.6-.1c1.5-.3 2.4-1.8 2.1-3.3l-.7-2.9c.3-.1.6-.3.9-.4l2 2.2c1 1.1 2.8 1.2 3.9.2l.5-.4c1.1-1 1.2-2.8.2-3.9l-2-2.2.6-.9 2.8.9c1.4.4 3-.4 3.4-1.8l.2-.6c.4-1.4-.4-3-1.8-3.4l-2.8-.9v-1l2.9-.7c1.5-.3 2.4-1.8 2.1-3.3l-.1-.6c-.3-1.5-1.8-2.5-3.3-2.1zm-13.1 15.8c-5.1 1.2-10.1-2-11.3-7.1-1.2-5.1 2-10.1 7.1-11.3 5.1-1.2 10.1 2 11.3 7.1 1.1 5.1-2.1 10.1-7.1 11.3z"/></g><path fill="#EEF1FF" d="M338.8 172.6c0 1.1-.9 2.1-2.1 2.1-1.1 0-2.1-.9-2.1-2.1s.9-2.1 2.1-2.1c1.1 0 2.1.9 2.1 2.1z"/><g><path fill="#FFCF74" d="M300.7 391.6c-.9 1.4-.9 2.1-.8 2.3.1.1.7.5 2.4.5H383c1.6 0 2.3-.4 2.4-.5 0-.1 0-.9-.9-2.2l-39.3-60.3c-.8-1.2-1.7-1.9-2.5-1.9s-1.8.7-2.5 1.9l-39.5 60.2z"/><path fill="#EB725F" d="M383 403h-80.8c-4.6 0-8.2-1.8-9.9-5-1.7-3.2-1.3-7.2 1.2-11l39.3-60.3c2.4-3.7 5.9-5.8 9.7-5.8 3.8 0 7.3 2.1 9.7 5.8l39.3 60.3c2.5 3.8 2.9 7.8 1.2 11-1.6 3.1-5.2 5-9.7 5zm-82.3-11.4c-.9 1.4-.9 2.1-.8 2.3.1.1.7.5 2.4.5H383c1.6 0 2.3-.4 2.4-.5 0-.1 0-.9-.9-2.2l-39.3-60.3c-.8-1.2-1.7-1.9-2.5-1.9s-1.8.7-2.5 1.9l-39.5 60.2z"/><path fill="#EB725F" d="M340.1 386.6c-.7-.7-1-1.5-1-2.4 0-1 .3-1.8 1-2.4.7-.7 1.5-1 2.4-1 1 0 1.8.3 2.4 1 .7.7 1 1.5 1 2.4 0 1-.3 1.8-1 2.4-.7.7-1.5 1-2.4 1-.9 0-1.7-.3-2.4-1zm-2-40.1h9l-1.7 28.7h-5.6l-1.7-28.7z"/></g><g><path fill="#FFCF74" d="M137.2 186.5h98v5.6h-98z"/><path fill="#F9AB43" d="M225.8 186.5h-79.2l34.2-84.3h10.7z"/><defs><path id="i" d="M225.8 186.5h-79.2l34.2-84.3h10.7z"/></defs><clipPath id="j"><use xlink:href="#i" overflow="visible"/></clipPath><g clip-path="url(#j)" fill="#FFCF74"><path d="M132.3 155.5h107.8v20.2H132.3zM132.3 115.3h107.8v20.2H132.3z"/></g><path opacity=".1" fill="#0046A0" d="M198.9 132.3c6.4 19.4 7 38.6 2.8 54.2h24.1l-34.2-84.4h-8.2c6.3 8.6 11.7 18.8 15.5 30.2z"/><g opacity=".3"><path fill="#FFF" d="M179.3 119.1c-2.2 5.8-4.4 11.7-6.7 17.5-3.5 9.3-7.1 18.6-10.6 27.9-.8 2.2-1.6 4.3-2.5 6.5-.7 1.9 2.4 2.8 3.1.9 2.2-5.8 4.4-11.7 6.7-17.5 3.5-9.3 7.1-18.6 10.6-27.9.8-2.2 1.6-4.3 2.5-6.5.8-2-2.3-2.8-3.1-.9z"/></g></g><g><path fill="#FFCF74" d="M110.6 289.6c-25.2 0-45.7 20.5-45.7 45.7S85.4 381 110.6 381c25.2 0 45.7-20.5 45.7-45.7s-20.5-45.7-45.7-45.7z"/><path fill="#FFF" d="M110.6 303.7c-17.4 0-31.6 14.2-31.6 31.6 0 17.4 14.2 31.6 31.6 31.6s31.6-14.2 31.6-31.6c0-17.5-14.2-31.6-31.6-31.6zm0 5.9c6 0 11.5 2.1 15.9 5.5l-36 36c-3.5-4.4-5.5-9.9-5.5-15.9 0-14.1 11.5-25.6 25.6-25.6zm0 51.3c-6 0-11.5-2.1-15.9-5.5l36-36c3.5 4.4 5.5 9.9 5.5 15.9.1 14.1-11.4 25.6-25.6 25.6z"/></g></svg>