<svg xmlns="http://www.w3.org/2000/svg" viewBox="0 0 500 500"><path fill="#4B6FEF" d="M388.3 114.3h-6.1v-6.1h-4.3v6.1h-6v4.3h6v6h4.3v-6h6.1v-4.3zm-36.6-22.9h-4.4V87h-3.1v4.4h-4.4v3.1h4.4v4.4h3.1v-4.4h4.4v-3.1zm-190 71.3h-4.4v-4.4h-3.1v4.4h-4.4v3.1h4.4v4.4h3.1v-4.4h4.4v-3.1zM42.8 262h-6v-6.1h-4.3v6.1h-6.1v4.3h6.1v6.1h4.3v-6.1h6V262zm414-105.2h-4.4v-4.4h-3.1v4.4h-4.4v3.1h4.4v4.4h3.1v-4.4h4.4v-3.1z" opacity=".2"/><g opacity=".1" fill="#4B6FEF"><circle cx="338.3" cy="124.5" r="3.8"/><circle cx="402.2" cy="87" r="2"/><path d="M232.3 186.7c0 1.1-.9 2-2 2s-2-.9-2-2 .9-2 2-2 2 .9 2 2zm201-66.3c0 2.1-1.7 3.8-3.8 3.8s-3.8-1.7-3.8-3.8 1.7-3.8 3.8-3.8c2.1 0 3.8 1.7 3.8 3.8zm-231.6 32.7c0 1.1-.9 2-2 2s-2-.9-2-2 .9-2 2-2 2 .9 2 2zM144.6 89c0 1.1-.9 2-2 2s-2-.9-2-2 .9-2 2-2 2 .9 2 2zM58.7 206.9c0 2.1-1.7 3.8-3.8 3.8s-3.8-1.7-3.8-3.8 1.7-3.8 3.8-3.8 3.8 1.7 3.8 3.8z"/><circle cx="158.1" cy="240" r="3.8"/><circle cx="61" cy="108.8" r="3.8"/><path d="M22.2 293.9c0 1.1-.9 2-2 2s-2-.9-2-2 .9-2 2-2 2 .9 2 2zm440.2 69.4c0 1.1-.9 2-2 2s-2-.9-2-2 .9-2 2-2 2 .9 2 2z"/></g><ellipse opacity=".2" fill="#9DA0AC" cx="242.2" cy="405.1" rx="224.6" ry="29.9"/><path fill="#E2E6FF" d="M439.9 234.5c12.7 3.7 30.9-5 25.9-14.8-4.2-8.2-19.4 6.3-25 12.1 1.2-3.6 2.4-7.3 3.5-11 10.9-7.5 15.9-26.8 5.1-29.2-9.2-2.1-7.5 19.8-6.7 27.4-.7 2.5-1.5 5.1-2.3 7.6 1-11.3-5-23.7-13.5-20.4-9.7 3.7 7.9 24.4 11 28-.1.3-.2.7-.4 1-1.4 3.9-3 7.8-4.7 11.7 1.7-11-3.1-23.5-11.7-21-9.9 2.8 5 24.3 8.2 28.6-1.4 2.9-2.9 5.8-4.5 8.6-1.2 2.1-2.4 4.2-3.7 6.3 3.9-11.3.2-26.2-9.3-24.4-10.2 2 3.6 25.4 6 29.4-3 4.4-6.2 8.7-9.7 12.7 5-10.9 2.6-26.5-7-25.4-10.1 1.1.9 24.4 3.4 29.5-3.9 4.2-8.2 8-12.7 11.5 7.1-9.7 7.9-25.2-1.8-26.1-10.1-1-4.2 23.8-2.8 29.4-3.7 2.5-7.5 4.7-11.5 6.6-1.4.7-2.8 1.3-4.3 1.9-1.2.5-.7 2.4.5 1.9 5.9-2.4 11.5-5.5 16.8-9.1 9.6 9.2 30.2 9.8 30.1-1.4-.1-9.2-19.8-3.1-27.6-.3 4-2.9 7.8-6.1 11.4-9.6 1.3-1.2 2.5-2.5 3.7-3.8 11.3 7 31.5 3.3 29.1-7.6-2-8.9-19.7.8-26.9 5.2 4.1-4.6 7.9-9.6 11.3-14.7 11.9 5.8 31.3.4 28-10.2-2.7-8.6-19.3 2.3-26.2 7.3.8-1.3 1.7-2.6 2.5-4 2.5-4.3 4.9-8.7 7.1-13.1 12.3 5 31.5-1.9 27.4-12.3-3.5-8.7-20.5 5-26.4 10.1 2.1-4.4 4-8.9 5.7-13.4.8-1.6 1.4-3.3 2-5zm-379.2 89c-.7-13.2-14.8-27.6-22.5-19.6-6.4 6.7 12.3 16.2 19.6 19.6-3.8 0-7.7.1-11.5.3-10.6-7.8-30.5-6.2-29.3 4.7 1 9.4 21.2.6 28.1-2.7 2.6-.2 5.3-.3 7.9-.3-11 2.8-20.7 12.5-14.8 19.5 6.7 8 20.5-15.5 22.8-19.5h1.1c4.2.1 8.4.3 12.6.6-11 2-21.2 10.6-16 17.9 5.9 8.4 21.3-12.7 24.4-17.1 3.2.4 6.4.9 9.6 1.4 2.4.4 4.8.9 7.1 1.4-11.9 0-24.9 8.4-20 16.7 5.3 9 22.9-11.7 25.8-15.3 5.1 1.4 10.2 3 15.2 5-12-1.2-25.9 6.2-21.7 15 4.4 9.2 22.8-8.8 26.8-12.8 5.2 2.4 10.2 5.1 15 8.3-11.5-3.5-26.4.8-24.1 10.3 2.4 9.8 23.8-3.8 28.7-7 3.5 2.6 6.9 5.5 10 8.7 1.1 1.1 2.2 2.3 3.2 3.4.8 1 2.5-.2 1.6-1.1-4.2-4.8-9-9.1-14.1-12.9 5.6-12.1-.7-31.7-11.2-27.9-8.6 3.1 3.6 19.7 8.7 26.2-4.1-2.8-8.4-5.4-12.8-7.6-1.6-.8-3.2-1.5-4.8-2.2 2.9-13-7.2-30.8-16.7-25-7.7 4.8 7.2 18.3 13.7 23.7-5.7-2.4-11.6-4.3-17.6-5.9 1.6-13.1-9.9-29.7-18.8-23.2-7.2 5.3 8.5 17.5 15.5 22.3-1.5-.4-3-.7-4.6-1-4.9-1-9.8-1.8-14.7-2.4.7-13.3-12.2-29.2-20.5-21.9-7.1 6.2 11.5 17.7 18.2 21.6-4.8-.5-9.7-.9-14.5-1-1.8-.2-3.6-.2-5.4-.2z"/><path fill="#EB725F" d="M445.8 280.5c3-1.8 6.2-3.5 9.4-4.9 15.3 2.4 27.8-6.7 27.8-6.7-17.3-5.2-25.5 2.3-28 5.4-1 .5-2 .9-3 1.4-4.8 2.3-9.3 5.1-13.6 8.2 9.2-10.1 10-23.3 10-23.3-16.5 11-14.1 23.3-13.4 25.9-3.7 3-7.2 6.3-10.4 9.8 6.1-13.4 1.6-27.3 1.6-27.3-11.2 16.1-4.7 26.6-3 29-2.4 2.8-4.6 5.7-6.6 8.8-.6.9-1.2 1.9-1.7 2.8 2.7-14.3-4.6-26.6-4.6-26.6-7.2 17.8.9 26.6 3.4 28.7-2.5 4.5-4.6 9.1-6.4 13.9 1.8-13.5-4.9-24.8-4.9-24.8-7.3 18.1 1.3 27 3.5 28.9-1.2 3.6-2.2 7.2-3 10.9-.2.8 1.1 1.2 1.3.3 1.3-5.8 3-11.5 5.2-17 15.7-.6 26.3-12.3 26.3-12.3-14.6-1.3-21.6 4.5-24.7 8.5 1.8-3.9 3.8-7.7 6.1-11.3 15.4 3 28.4-5.9 28.4-5.9-14.4-4.8-22.6-.4-26.4 2.9 2.4-3.5 5-6.8 7.9-9.9 14.8 4.8 28.7-2.4 28.7-2.4-12.4-5.9-20.7-3.7-25.3-1.1.9-.9 1.8-1.7 2.8-2.5 2.6-2.3 5.4-4.5 8.3-6.4 13.7 7.6 28.8 3 28.8 3-11.1-8.1-19.5-7.6-24.5-6zM56.1 373.3c-3.5 0-7.1-.2-10.6-.6-11.9-9.8-27.3-8.4-27.3-8.4 12.2 13.3 23.1 11 26.8 9.6l3.3.3c5.3.4 10.6.4 15.9-.1-13.1 4-20.6 14.9-20.6 14.9 19.8-1 24.1-12.8 24.8-15.4 4.7-.7 9.4-1.7 13.9-3.1C70.2 379 67 393.3 67 393.3c17.9-8.1 17.7-20.5 17.4-23.4 3.5-1.2 6.9-2.6 10.2-4.2 1-.5 2-1 2.9-1.5-9.6 10.9-9.6 25.2-9.6 25.2 15.2-11.6 12.8-23.4 11.8-26.4 4.4-2.5 8.7-5.5 12.6-8.7-8.5 10.7-8.4 23.8-8.4 23.8 15.6-11.9 12.7-23.8 11.7-26.6 2.8-2.5 5.5-5.1 8.1-7.9.6-.6-.3-1.6-.9-.9-4.1 4.4-8.4 8.4-13.1 11.9-13.8-7.5-28.9-2.8-28.9-2.8 11.9 8.6 20.8 7.2 25.6 5.3-3.5 2.5-7.2 4.7-11 6.6-11.7-10.4-27.4-9.4-27.4-9.4 9.9 11.5 19.3 11.9 24.2 11-3.8 1.8-7.8 3.3-11.9 4.5-10.3-11.7-25.9-12.6-25.9-12.6 7.7 11.5 15.9 13.8 21.2 13.9-1.2.3-2.4.5-3.7.8-3.5.6-6.9 1.1-10.5 1.3-7.9-13.5-23.2-17.3-23.2-17.3 5.3 12.3 12.8 16.3 17.9 17.4z"/><path fill="#92A6F4" d="M413.1 404.8c0 2.4-2 4.4-4.4 4.4H253.5c-2.4 0-4.4-2-4.4-4.4V175.3c0-2.4 2-4.4 4.4-4.4h155.1c2.4 0 4.4 2 4.4 4.4v229.5h.1z"/><path fill="#D0DBF7" d="M256.8 183.7h148.5v203.9H256.8V183.7z"/><path fill="#F5F9FF" d="M273.9 199h114.4v172.4H273.9V199z"/><path fill="#E2E6FF" d="M273.9 199h114.4v10.5H273.9V199z"/><path fill="#EB725F" d="M283.1 204.5c0 1.3-1.1 2.4-2.4 2.4s-2.4-1.1-2.4-2.4c0-1.3 1.1-2.4 2.4-2.4s2.4 1 2.4 2.4z"/><path fill="#F9AB43" d="M291.2 204.5c0 1.3-1.1 2.4-2.4 2.4s-2.4-1.1-2.4-2.4c0-1.3 1.1-2.4 2.4-2.4s2.4 1 2.4 2.4z"/><path fill="#6E7FDD" d="M299.3 204.5c0 1.3-1.1 2.4-2.4 2.4s-2.4-1.1-2.4-2.4c0-1.3 1.1-2.4 2.4-2.4s2.4 1 2.4 2.4z"/><path fill="#E2E6FF" d="M363.9 266.9l-9.6-9.7-23.2 23.2-23.2-23.2-9.7 9.7 23.2 23.2-23.2 23.1 9.7 9.7 23.2-23.2 23.2 23.2 9.6-9.7-23.1-23.1 23.1-23.2z"/><path fill="#6E7FDD" d="M311.8 402c0 2.3-1.9 4.1-4.1 4.1H90.2c-2.3 0-4.2-1.9-4.2-4.1V261.4c0-2.3 1.9-4.1 4.2-4.1h217.5c2.3 0 4.1 1.9 4.1 4.1V402z"/><path fill="#D0DBF7" d="M92.6 264.1h212.6v135.1H92.6V264.1z"/><path fill="#6E7FDD" d="M71.3 392.6v12c0 2.6 2.1 4.7 4.7 4.7h245.8c2.6 0 4.7-2.1 4.7-4.7v-12H71.3z"/><path fill="#92A6F4" d="M161.1 392.6v3.5c0 .8.6 1.4 1.4 1.4h72.8c.8 0 1.4-.6 1.4-1.4v-3.5h-75.6z"/><path fill="#F9AB43" d="M435.3 383.1c-.7 3.1-3.8 5.6-7 5.6h-66.9c-3.2 0-6.3-2.5-7-5.6l-14.9-67.2c-.7-3.1 1.3-5.6 4.5-5.6h101.8c3.2 0 5.2 2.5 4.5 5.6l-15 67.2z"/><path fill="#FFCF74" d="M409.8 318.3c-3.2 0-6.6 2.4-7.7 5.4l-3.2 8.9c-1.1 3-4.5 5.4-7.7 5.4h-48.6c-3.2 0-5.1 2.5-4.2 5.5l16.2 60.2c.8 3 4.1 5.5 7.2 5.5h66.3c3.2 0 6.4-2.5 7.2-5.5l16.2-60.2c.8-3 2.4-8 3.4-10.9l3.2-8.9c1.1-3-.7-5.4-3.8-5.4h-44.5z"/><path opacity=".1" fill="#0046A0" d="M454.3 318.3h-17.9c2.2 6.2 3.3 12.8 3.3 19.7 0 34.3-28.9 62.1-64.5 62.1-8 0-15.6-1.4-22.7-4l2 7.6c.8 3 4.1 5.5 7.2 5.5H428c3.2 0 6.4-2.5 7.2-5.5l16.2-60.2c.8-3 2.4-8 3.4-10.9l3.2-8.9c1.2-3-.5-5.4-3.7-5.4z"/><path fill="#EB725F" d="M388.3 363.3c0 3.3-1.9 6-4.3 6s-4.3-2.7-4.3-6 1.9-6 4.3-6 4.3 2.7 4.3 6zm28.7 0c0 3.3-1.9 6-4.3 6s-4.3-2.7-4.3-6 1.9-6 4.3-6 4.3 2.7 4.3 6zM388.4 380.2c1.5-1.6 3.5-2.9 5.6-3.6 5.2-1.9 10.2.1 14.2 3.6 1.1.9 2.6-.6 1.6-1.6-4.4-3.9-10.1-6.3-15.9-4.3-2.6.8-5.2 2.3-7 4.3-1 1.1.6 2.6 1.5 1.6z"/><path fill="#F8FAFF" d="M106.8 309.5h97.9v72.2h-97.9v-72.2z"/><path fill="#E2E6FF" d="M106.8 309.5h97.9v9h-97.9v-9z"/><path fill="#EB725F" d="M114.6 314.3c0 1.1-.9 2.1-2.1 2.1-1.1 0-2.1-.9-2.1-2.1s.9-2.1 2.1-2.1 2.1.9 2.1 2.1z"/><path fill="#F9AB43" d="M121.6 314.3c0 1.1-.9 2.1-2.1 2.1s-2.1-.9-2.1-2.1.9-2.1 2.1-2.1 2.1.9 2.1 2.1z"/><path fill="#6E7FDD" d="M128.5 314.3c0 1.1-.9 2.1-2.1 2.1s-2.1-.9-2.1-2.1.9-2.1 2.1-2.1 2.1.9 2.1 2.1z"/><g><path fill="#D0DBF7" d="M150 354.4c0-3 1.2-5.4 3.6-7.1l1.2-.8c1.1-.7 1.9-1.3 2.3-1.8.4-.5.6-1 .6-1.7 0-1.7-1.4-2.6-4.3-2.6-1.3 0-2.7.2-4.1.5-1.4.4-2.8.9-4 1.5v-6.8c2.7-1.2 5.8-1.9 9.1-1.9 3.6 0 6.5.8 8.7 2.3 2.1 1.5 3.2 3.6 3.2 6.3 0 1.5-.3 2.7-1 3.7-.7.9-1.8 2-3.5 3.1-1.1.8-1.9 1.4-2.4 1.8s-.9.9-1.1 1.4c-.3.5-.4 1.2-.4 2v.8H150v-.7zm.9 10.7c-.8-.8-1.2-1.8-1.2-2.9 0-1.2.4-2.2 1.2-2.9.8-.8 1.8-1.2 3-1.2s2.1.4 3 1.2c.8.8 1.2 1.8 1.2 2.9s-.4 2.1-1.2 2.9-1.8 1.2-3 1.2c-1.2-.1-2.2-.4-3-1.2z"/></g><g><path fill="#F5F9FF" d="M191.8 279.6h97.9v72.2h-97.9v-72.2z"/><path fill="#E2E6FF" d="M191.8 279.6h97.9v9h-97.9v-9z"/><circle fill="#EB725F" cx="197.6" cy="284.3" r="2.1"/><path fill="#F9AB43" d="M206.6 284.3c0 1.1-.9 2.1-2.1 2.1-1.1 0-2.1-.9-2.1-2.1s.9-2.1 2.1-2.1c1.2.1 2.1 1 2.1 2.1z"/><circle fill="#6E7FDD" cx="211.5" cy="284.3" r="2.1"/><g><path fill="#D0DBF7" d="M235.1 324.5c0-3 1.2-5.4 3.6-7.1l1.2-.8c1.1-.7 1.9-1.3 2.3-1.8.4-.5.6-1 .6-1.7 0-1.7-1.4-2.6-4.3-2.6-1.3 0-2.7.2-4.1.5-1.4.4-2.8.9-4 1.5v-6.8c2.7-1.2 5.8-1.9 9.1-1.9 3.6 0 6.5.8 8.7 2.3 2.1 1.5 3.2 3.6 3.2 6.3 0 1.5-.3 2.7-1 3.7-.7.9-1.8 2-3.5 3.1-1.1.8-1.9 1.4-2.4 1.8s-.9.9-1.1 1.4c-.3.5-.4 1.2-.4 2v.8h-7.8l-.1-.7zm.9 10.6c-.8-.8-1.2-1.8-1.2-2.9 0-1.2.4-2.2 1.2-2.9.8-.8 1.8-1.2 3-1.2s2.1.4 3 1.2c.8.8 1.2 1.8 1.2 2.9s-.4 2.1-1.2 2.9-1.8 1.2-3 1.2-2.2-.4-3-1.2z"/></g></g><g fill="#E2E6FF"><path d="M217.4 190.6l-15.5 4.2-4.2-15.6-31.6 8.6 14.8 54.4 47.2-12.8-10.7-38.8zm-15.9 31.3c-.4.7-1.1 1.2-1.9 1.4-.9.2-1.6.1-2.4-.3-.7-.4-1.2-1-1.4-1.9s-.1-1.6.3-2.4c.4-.7 1.1-1.2 1.9-1.4.8-.2 1.6-.1 2.4.3.7.4 1.2 1 1.5 1.9.2.9.1 1.7-.4 2.4zm2.4-15.3c-.3.8-.9 1.8-1.9 2.9-.6.8-1.1 1.4-1.4 1.8-.3.4-.5.8-.5 1.3-.1.4 0 .9.1 1.5l.2.6-5.7 1.5-.2-.7c-.6-2.2-.2-4.1 1.2-5.8l.7-.8c.7-.7 1.1-1.3 1.3-1.7s.3-.9.1-1.4c-.3-1.2-1.5-1.6-3.6-1-1 .3-1.9.7-2.9 1.2s-1.8 1.2-2.6 1.9l-1.3-4.9c1.7-1.4 3.8-2.5 6.2-3.1 2.6-.7 4.9-.7 6.7 0s3 2 3.6 3.9c.3 1 .3 2 0 2.8z"/><path d="M200.7 179.9l3.1 11.6 11.5-3.2-14.6-8.4zM305.3 128.7l-20.9-6.7 6.7-21-42.6-13.6-23.4 73.2 63.6 20.4 16.7-52.1-.1-.2zm-41.4 24c-1 .5-2.1.6-3.2.2-1.2-.4-2-1.1-2.5-2.1s-.6-2.1-.2-3.2c.4-1.2 1.1-2 2.1-2.5s2.1-.6 3.2-.2c1.1.4 2 1 2.5 2.1.5 1 .6 2.1.3 3.2-.4 1.1-1.1 2-2.2 2.5zm14.1-15.8c-1 .7-2.4 1.4-4.3 2-1.3.4-2.3.8-2.9 1s-1.1.6-1.6 1.1c-.4.4-.7 1-1 1.8l-.3.8-7.6-2.4.3-.9c.9-2.9 2.8-4.9 5.7-5.8l1.4-.4c1.3-.4 2.2-.7 2.8-1 .6-.3.9-.8 1.2-1.5.5-1.7-.6-3-3.4-3.9-1.3-.4-2.7-.7-4.2-.8-1.5-.1-3 0-4.4.2l2.1-6.7c3-.4 6.2 0 9.5 1 3.5 1.1 6.1 2.8 7.7 4.9 1.6 2.2 2 4.5 1.1 7.2-.5 1.6-1.2 2.7-2.1 3.4z"/><path d="M294.1 103.9l-5 15.6 15.5 5-10.5-20.6z"/></g><g><path fill="#EB725F" d="M429.5 207.8c0 4.6-3.7 8.3-8.3 8.3H332c-4.6 0-8.3-3.7-8.3-8.3v-55.9c0-4.6 3.7-8.3 8.3-8.3h89.2c4.6 0 8.3 3.7 8.3 8.3v55.9z"/><path fill="#FFF" d="M400.8 204.5h-48.5c-2.7 0-4.9-1.1-5.9-3s-.8-4.3.7-6.6l23.6-36.2c1.4-2.2 3.6-3.5 5.8-3.5 2.3 0 4.4 1.3 5.8 3.5l23.6 36.2c1.5 2.3 1.8 4.7.7 6.6-.9 1.9-3.1 3-5.8 3zm-49.4-6.8c-.5.8-.5 1.3-.5 1.4 0 .1.4.3 1.4.3h48.5c1 0 1.4-.3 1.4-.3 0-.1 0-.5-.5-1.3l-23.6-36.2c-.5-.7-1-1.2-1.5-1.2s-1.1.4-1.5 1.2l-23.7 36.1z"/><path fill="#FFF" d="M375.1 194.6c-.4-.4-.6-.9-.6-1.5s.2-1.1.6-1.5.9-.6 1.5-.6 1.1.2 1.5.6c.4.4.6.9.6 1.5s-.2 1.1-.6 1.5-.9.6-1.5.6-1.1-.2-1.5-.6zm-1.2-24h5.4l-1 17.2h-3.4l-1-17.2z"/><path fill="#EB725F" d="M142.6 278.8c0 3.8-3.1 6.9-6.9 6.9H61.8c-3.8 0-6.9-3.1-6.9-6.9v-46.3c0-3.8 3.1-6.9 6.9-6.9h73.9c3.8 0 6.9 3.1 6.9 6.9v46.3z"/><path fill="#FFF" d="M98.8 231.6c-13.2 0-24 10.8-24 24s10.8 24 24 24 24-10.8 24-24-10.8-24-24-24zm0 4.6c4.6 0 8.8 1.6 12.1 4.2l-27.3 27.3c-2.6-3.3-4.2-7.5-4.2-12.1-.1-10.7 8.6-19.4 19.4-19.4zm0 38.9c-4.6 0-8.8-1.6-12.1-4.2l27.3-27.3c2.6 3.3 4.2 7.5 4.2 12.1 0 10.7-8.7 19.4-19.4 19.4z"/></g><g><path fill="#EB725F" d="M261.6 402.3l55.6-26.6 3.1 6.6-55.6 26.6-3.1-6.6z"/><path fill="#FFCF74" d="M296.5 385.6l20.7-9.9 3.1 6.6-20.7 9.9-3.1-6.6z"/><path fill="#EB725F" d="M370.8 354.1c-7.4-15.5-25.9-22-41.4-14.6s-22 25.9-14.6 41.4 25.9 22 41.4 14.6c15.5-7.5 22-26 14.6-41.4zm-49.9 23.8c-5.8-12.1-.7-26.6 11.4-32.4s26.6-.7 32.4 11.4.7 26.6-11.4 32.4-26.6.7-32.4-11.4z"/><ellipse opacity=".3" fill="#F5F9FF" cx="342.8" cy="367.5" rx="24.3" ry="24.3"/><path fill="#FFF" d="M342.4 361.7c-3.5 1.7-7.7.2-9.4-3.3s-.2-7.7 3.3-9.4 7.7-.2 9.4 3.3c1.7 3.5.2 7.8-3.3 9.4z"/></g><g opacity=".2"><path fill="#4B6FEF" d="M181.1 125.5c1-4.2 3.4-7.1 7.3-8.7l1.9-.7c1.8-.6 3-1.2 3.8-1.7.7-.5 1.2-1.2 1.5-2.2.6-2.4-1.2-4.1-5.2-5-1.9-.4-3.8-.6-5.9-.6-2.1 0-4.1.3-6.1.8l2.2-9.6c4.2-.9 8.7-.7 13.4.4 5.1 1.2 8.9 3.2 11.4 6s3.3 6.1 2.4 9.9c-.5 2.1-1.4 3.7-2.6 4.8-1.3 1.1-3.2 2.2-5.9 3.2-1.8.8-3.1 1.4-4 1.8-.8.4-1.5 1-2.1 1.6-.5.7-.9 1.5-1.2 2.6l-.3 1.2-10.9-2.5.3-1.3zm-2.2 15.2c-.8-1.4-1.1-2.8-.7-4.4.4-1.7 1.3-2.9 2.6-3.7s2.8-1 4.5-.7c1.6.4 2.9 1.2 3.7 2.6.9 1.4 1.1 2.8.8 4.5s-1.3 2.8-2.7 3.7c-1.4.8-2.9 1.1-4.5.7-1.6-.5-2.9-1.4-3.7-2.7zm-71.5 68c-1.1-2.3-1.1-4.6.1-6.8l.6-1c.6-1 .9-1.7 1.1-2.2s.1-1-.1-1.6c-.6-1.3-2.1-1.4-4.3-.4-1 .5-2 1.2-3 2s-1.8 1.7-2.5 2.7l-2.6-5.2c1.6-2 3.7-3.6 6.3-4.9 2.8-1.4 5.3-1.9 7.5-1.5s3.8 1.6 4.8 3.6c.6 1.2.8 2.2.6 3.2-.2 1-.7 2.2-1.5 3.7-.5 1-.9 1.8-1.1 2.3s-.3 1-.3 1.5.2 1 .4 1.6l.3.6-6 2.9-.3-.5zm4.7 7.8c-.9-.3-1.6-.9-2-1.8-.4-.9-.5-1.8-.2-2.7s.9-1.5 1.8-2c.9-.4 1.8-.5 2.7-.2.9.3 1.6.9 2 1.8.4.9.5 1.8.2 2.7s-.9 1.6-1.8 2-1.8.5-2.7.2z"/></g><g><path fill="#FFCF74" d="M97.4 165v-4h-5c-.3-2.2-1.2-4.3-2.5-6l3.5-3.5-2.8-2.8-3.5 3.5c-1.7-1.3-3.8-2.2-6-2.5v-5h-3.9v5c-2.2.3-4.3 1.2-6 2.5l-3.5-3.5-2.8 2.8 3.5 3.5c-1.3 1.7-2.2 3.8-2.5 6h-5v3.9h5c.3 2.2 1.2 4.3 2.5 6l-3.5 3.5 2.8 2.8 3.5-3.5c1.7 1.3 3.8 2.2 6 2.5v5h3.9v-5c2.2-.3 4.3-1.2 6-2.5l3.5 3.5 2.8-2.8L90 171c1.3-1.7 2.2-3.8 2.5-6h4.9zm-18.2 6.3c-4.6 0-8.3-3.7-8.3-8.3s3.7-8.3 8.3-8.3 8.3 3.7 8.3 8.3-3.7 8.3-8.3 8.3z"/><path fill="#F9AB43" d="M139.7 140.8v-5.5h-7c-.5-3.1-1.7-6-3.5-8.4l4.9-4.9-3.9-3.9-4.9 4.9c-2.4-1.8-5.3-3-8.4-3.5v-7h-5.5v7c-3.1.5-6 1.7-8.4 3.5l-4.9-4.9-3.9 3.9 4.9 4.9c-1.8 2.4-3 5.3-3.5 8.4h-7v5.5h7c.5 3.1 1.7 6 3.5 8.4l-4.9 4.9 3.9 3.9 4.9-4.9c2.4 1.8 5.3 3 8.4 3.5v7h5.5v-7c3.1-.5 6-1.7 8.4-3.5l4.9 4.9 3.9-3.9-4.9-4.9c1.8-2.4 3-5.3 3.5-8.4h7zm-25.5 8.9c-6.4 0-11.6-5.2-11.6-11.6s5.2-11.6 11.6-11.6 11.6 5.2 11.6 11.6-5.2 11.6-11.6 11.6z"/></g></svg>