<svg xmlns="http://www.w3.org/2000/svg" viewBox="0 0 500 500"><path fill="#F5F9FF" d="M62.1 208.5h166.2v122.6H62.1V208.5z"/><path fill="#D0DBF7" d="M62.1 208.5h166.2v15.3H62.1v-15.3z"/><path fill="#F2F2F2" d="M75.4 216.5c0 1.9-1.6 3.5-3.5 3.5s-3.5-1.6-3.5-3.5 1.6-3.5 3.5-3.5 3.5 1.5 3.5 3.5zm11.8 0c0 1.9-1.6 3.5-3.5 3.5s-3.5-1.6-3.5-3.5 1.6-3.5 3.5-3.5 3.5 1.5 3.5 3.5zm11.8 0c0 1.9-1.6 3.5-3.5 3.5s-3.5-1.6-3.5-3.5 1.6-3.5 3.5-3.5 3.5 1.5 3.5 3.5z"/><path fill="#E3EBFC" d="M173.6 257.1l-8.4-8.4-20 20-20-20-8.4 8.4 20 20-20 20 8.4 8.4 20-20 20 20 8.4-8.4-20-20 20-20z"/><path fill="#F5F9FF" d="M266.1 131.1h166.2v122.6H266.1V131.1z"/><path fill="#D0DBF7" d="M266.1 131.1h166.2v15.3H266.1v-15.3z"/><path fill="#F2F2F2" d="M279.5 139.1c0 1.9-1.6 3.5-3.5 3.5s-3.5-1.6-3.5-3.5 1.6-3.5 3.5-3.5c1.9.1 3.5 1.6 3.5 3.5zm11.7 0c0 1.9-1.6 3.5-3.5 3.5s-3.5-1.6-3.5-3.5 1.6-3.5 3.5-3.5c2 .1 3.5 1.6 3.5 3.5zm11.8 0c0 1.9-1.6 3.5-3.5 3.5s-3.5-1.6-3.5-3.5 1.6-3.5 3.5-3.5c2 .1 3.5 1.6 3.5 3.5z"/><path fill="#E3EBFC" d="M377.6 179.8l-8.4-8.4-20 20-20-20-8.4 8.4 20 20-20 20 8.4 8.4 20-20 20 20 8.4-8.4-20-20 20-20z"/><ellipse opacity=".2" fill="#9DA0AC" cx="249" cy="412.7" rx="203.2" ry="17.6"/><path opacity=".2" fill="#4B6FEF" d="M199.5 133.2c-1.5-3.2-1.5-6.4.2-9.4l.8-1.4c.8-1.3 1.3-2.3 1.6-3.1.2-.7.2-1.4-.2-2.2-.9-1.8-2.9-2-5.9-.6-1.4.7-2.8 1.6-4.2 2.7-1.3 1.1-2.5 2.3-3.6 3.7l-3.5-7.3c2.3-2.7 5.2-5 8.9-6.7 3.9-1.9 7.4-2.5 10.5-2 3.1.5 5.3 2.3 6.7 5.2.8 1.6 1 3.1.8 4.5-.3 1.4-1 3.1-2.1 5.1-.8 1.4-1.3 2.5-1.6 3.2-.3.7-.5 1.4-.5 2.1 0 .7.2 1.5.6 2.3l.4.9-8.4 4-.5-1zm6.4 10.9c-1.2-.4-2.2-1.3-2.8-2.5-.6-1.3-.7-2.5-.2-3.8.4-1.2 1.3-2.1 2.6-2.8 1.2-.6 2.5-.7 3.8-.2 1.3.4 2.2 1.3 2.8 2.5.6 1.2.7 2.5.2 3.7-.5 1.3-1.3 2.2-2.6 2.8-1.3.7-2.6.8-3.8.3zm34.3-38.9c2.1-5 5.7-8 10.8-9.2l2.5-.5c2.3-.4 4-.9 5-1.3 1-.5 1.8-1.3 2.2-2.4 1.2-2.8-.6-5.2-5.3-7.2-2.2-.9-4.6-1.6-7.2-2-2.6-.4-5.1-.5-7.7-.3l4.7-11.3c5.4-.2 10.8.9 16.4 3.2 6 2.5 10.3 5.8 12.7 9.8 2.5 4 2.8 8.2.9 12.7-1 2.5-2.5 4.3-4.2 5.3-1.8 1.1-4.4 2-7.9 2.8-2.4.6-4.1 1-5.2 1.4-1.1.4-2.1.9-2.9 1.6-.8.7-1.4 1.7-2 3l-.6 1.4-12.9-5.4.7-1.6zm-5.9 18.2c-.8-1.8-.7-3.7.1-5.6.8-2 2.1-3.3 4-4 1.8-.7 3.7-.7 5.7.1 1.9.8 3.3 2.1 4.1 4 .8 1.9.8 3.7 0 5.7s-2.1 3.2-4 4c-1.9.7-3.8.7-5.7-.1-2-1-3.4-2.3-4.2-4.1zM449.7 285.1v-5.7h-3.8v5.7h-5.7v3.8h5.7v5.7h3.8v-5.7h5.7v-3.8h-5.7zm-36-183.7v-8.8h-5.8v8.8h-8.8v5.8h8.8v8.8h5.8v-8.8h8.8v-5.8h-8.8zm-15.9 169.4v-4.2H395v4.2h-4.2v2.8h4.2v4.2h2.8v-4.2h4.2v-2.8h-4.2zM159.4 125.4v-4.2h-2.8v4.2h-4.2v2.8h4.2v4.2h2.8v-4.2h4.2v-2.8h-4.2zm-32.3-27.6V92h-3.8v5.7h-5.7v3.8h5.7v5.7h3.8v-5.7h5.7v-3.8h-5.7z"/><g opacity=".1" fill="#4B6FEF"><path d="M315.7 109.5c0 1.2-.9 2.2-2.1 2.2-1.2 0-2.2-.9-2.2-2.1v-.1c0-1.2 1-2.2 2.2-2.1 1.1 0 2 .9 2.1 2.1zm8.9-37.6c0 1.2-1 2.2-2.2 2.2-1.2 0-2.2-1-2.2-2.2 0-1.2 1-2.2 2.2-2.2 1.2.1 2.2 1 2.2 2.2z"/><circle cx="367.3" cy="89.9" r="4.1"/><path d="M454.3 245.2c0 1.2-.9 2.2-2.1 2.2-1.2 0-2.2-.9-2.2-2.1v-.1c0-1.2 1-2.2 2.2-2.1 1.2 0 2.1.9 2.1 2.1zm-2.1 68.1c0 1.2-1 2.2-2.2 2.2-1.2 0-2.2-1-2.2-2.2 0-1.2 1-2.2 2.2-2.2 1.2.1 2.2 1 2.2 2.2zM119.8 194.1c0 1.2-1 2.2-2.2 2.2-1.2 0-2.2-1-2.2-2.2 0-1.2 1-2.2 2.2-2.2 1.2 0 2.2 1 2.2 2.2z"/><circle cx="81.8" cy="103.6" r="4.1"/><path d="M163.3 80.3c0 1.2-.9 2.2-2.1 2.2-1.2 0-2.2-.9-2.2-2.1v-.1c0-1.2 1-2.2 2.2-2.1 1.1-.1 2.1.9 2.1 2.1zM48 211.2c0 1.2-.9 2.2-2.1 2.2-1.2 0-2.2-.9-2.2-2.1v-.1c0-1.2 1-2.2 2.2-2.1 1.2 0 2.1.9 2.1 2.1zm0 116.3c0 1.2-.9 2.2-2.1 2.2-1.2 0-2.2-.9-2.2-2.1v-.1c0-1.2 1-2.2 2.2-2.1 1.2 0 2.1 1 2.1 2.1z"/></g><path fill="#6E7FDD" d="M366.3 393.3s-36.2-72.3 62-120.3c0-.1 7.5 103-62 120.3z"/><path fill="#B3C9F9" d="M370.5 384.1c0-10.3 2.1-20.6 5.1-30.5.4-1.2.7-2.5 1.1-3.7l1.3-3.7 1.3-3.7 1.5-3.6c1.9-4.8 4.4-9.4 6.7-14.1l3.9-6.7c1.3-2.3 2.7-4.4 4.1-6.6 1.5-2.1 2.9-4.3 4.4-6.4 1.6-2.1 3.1-4.1 4.7-6.2l2.4-3.1 2.6-2.9 5.2-5.8c.8-1 1.8-1.9 2.7-2.8l2.8-2.7c1.9-1.8 3.7-3.6 5.6-5.3-1.6 2-3.2 4-4.9 6l-2.5 2.9c-.8 1-1.7 1.9-2.4 3l-4.7 6.1-2.4 3-2.2 3.1c-1.4 2.1-2.9 4.2-4.4 6.3-1.4 2.1-2.7 4.3-4.1 6.5-2.9 4.2-5.2 8.8-7.8 13.2-4.8 9-9 18.3-12.5 27.9-3.2 9.7-6.1 19.6-7.5 29.8z"/><path opacity=".1" fill="#0046A0" d="M424.6 272.2c-1.4 24.9-9.9 91-61.4 106 1.9 7.5 4.1 12 4.1 12 69.5-17.3 62-120.3 62-120.3-1.6.7-3.1 1.5-4.7 2.3z"/><path fill="#FFCF74" d="M357.5 416.6s5.1-22 26.7-48.7c23.6-29.2 54.4-39.8 67.1-25.7 12.4 13.6 1.9 32.5-30.1 42.1-31.9 9.6-50 13.7-63.7 32.3z"/><path fill="#F9AB43" d="M441.2 349.8c-7.3 2.9-14.4 6.2-21.3 9.8-6.9 3.6-13.7 7.5-20.1 11.8-6.5 4.3-12.6 9.1-18.4 14.3-5.7 5.3-10.9 11.1-15.4 17.6 1.8-3.5 4-6.8 6.3-10 2.4-3.1 4.9-6.2 7.7-9 5.5-5.7 11.8-10.6 18.3-15 3.3-2.2 6.7-4.2 10.1-6.2 3.5-1.9 7-3.7 10.6-5.3 7.1-3.3 14.6-6.1 22.2-8z"/><path opacity=".1" fill="#0046A0" d="M451.3 342.1c-.7-.7-1.4-1.4-2.2-2.1-10.4 25.4-40.6 43.7-76.4 43.8-12 18.9-15.2 32.7-15.2 32.7 13.8-18.5 31.8-22.7 63.7-32.3 32-9.6 42.5-28.4 30.1-42.1z"/><path fill="#6E7FDD" d="M172.2 404.2s-74.3 31.9-116.5-68.9c-.1 0 103.3-1.5 116.5 68.9z"/><path fill="#B3C9F9" d="M166.2 400.7c-10.3-.6-20.5-3.3-30.2-6.9-1.2-.5-2.4-.9-3.6-1.4l-3.6-1.5-3.6-1.5-3.5-1.7c-4.7-2.2-9.1-4.9-13.6-7.5l-6.5-4.3c-2.2-1.4-4.3-2.9-6.3-4.5s-4.2-3.1-6.1-4.8c-2-1.7-3.9-3.4-5.9-5.1l-2.9-2.6-2.8-2.7-5.5-5.5c-.9-.9-1.8-1.9-2.6-2.9l-2.5-2.9c-1.7-2-3.3-3.9-5-5.9 1.9 1.7 3.8 3.5 5.7 5.2l2.8 2.6c.9.9 1.8 1.8 2.8 2.6l5.8 5 2.9 2.5 3 2.4 6 4.8c2 1.6 4.1 3 6.2 4.5 4.1 3.1 8.4 5.7 12.7 8.5 8.7 5.3 17.7 10.1 27.1 14.1 9.5 4 19.1 7.5 29.2 9.5z"/><path opacity=".1" fill="#0046A0" d="M57.7 340.1c24.7 2.8 90.2 15.2 102.2 67.4 7.6-1.4 12.2-3.4 12.2-3.4-13.1-70.3-116.4-68.8-116.4-68.8.6 1.6 1.3 3.2 2 4.8z"/><g><path fill="#FFCF74" d="M141.6 377s-.4-22.6-15.7-53.3c-16.9-33.6-44.7-50.4-60.2-39.4-15 10.7-8.7 31.4 20.5 47.5 29.1 16.3 45.9 24.2 55.4 45.2z"/><path fill="#F9AB43" d="M74 294c6.5 4.4 12.7 9.1 18.8 14.1 6 5 11.8 10.2 17.2 15.8 5.4 5.6 10.4 11.6 14.9 17.9 4.4 6.4 8.3 13.2 11.4 20.4-1-3.8-2.4-7.5-4-11.1-1.7-3.6-3.5-7.1-5.7-10.4-4.2-6.7-9.2-12.9-14.7-18.6-2.8-2.8-5.6-5.6-8.6-8.2-3-2.6-6-5.1-9.2-7.4-6.5-4.7-13.1-8.9-20.1-12.5z"/><path opacity=".1" fill="#0046A0" d="M65.7 284.4c.8-.6 1.7-1.1 2.6-1.5 4.7 27 30.4 51.4 65.4 59 7.7 21 7.9 35.2 7.9 35.2-9.5-21-26.3-28.9-55.4-45.1-29.2-16.2-35.5-36.9-20.5-47.6z"/></g><g><path fill="#F9AB43" d="M347.4 398.9c-.8 5.4-6.2 9.7-11.9 9.7H165c-5.8 0-11.2-4.4-12.1-9.7l-28.2-171.2c-.9-5.3 3.1-9.7 8.9-9.7h230.7c5.8 0 9.8 4.4 9 9.7l-25.9 171.2z"/><path fill="#C2CEF2" d="M304.7 160.8H161.1V363h175.6V193.3l-32-32.5z"/><path fill="#7997F2" d="M304.7 160.8l32.2 32.2h-32.2v-32.2z"/><path fill="#AFC2E8" d="M297.6 224.8l-14.3-14.3-34.3 34.3-34.3-34.3-14.3 14.3 34.3 34.3-34.3 34.3 14.3 14.3 34.3-34.3 34.3 34.3 14.3-14.3-34.3-34.3 34.3-34.3z"/><path fill="#FFCF74" d="M265.7 276.8c-4.5 0-9.3-3.5-10.7-7.9l-6.6-21.3c-1.3-4.3-6.1-7.9-10.7-7.9H120.8c-4.5 0-7.6 3.6-6.8 8.1l28.5 160.9c.8 4.5 5.1 8.1 9.7 8.1h202.6c4.5 0 8.8-3.7 9.5-8.1l19.7-124c.7-4.5-2.4-8.1-6.9-8.1l-111.4.2z"/><path fill="#FFF" d="M237.2 352.2c0-6.3 2.5-11.1 7.5-14.6l2.4-1.7c2.3-1.5 3.9-2.7 4.7-3.6.9-1 1.3-2.1 1.3-3.5 0-3.6-3-5.3-8.9-5.3-2.8 0-5.6.4-8.6 1.1-2.9.7-5.7 1.8-8.4 3.1v-14.2c5.6-2.6 12-3.9 19-3.9 7.6 0 13.5 1.6 18 4.7 4.4 3.2 6.6 7.5 6.6 13.1 0 3.1-.7 5.7-2.1 7.6-1.4 1.9-3.8 4.1-7.2 6.5-2.3 1.7-3.9 2.9-5 3.8-1 .9-1.8 1.9-2.3 3-.5 1.1-.8 2.5-.8 4v1.8h-16.2v-1.9zm1.9 22c-1.6-1.6-2.4-3.6-2.4-6 0-2.5.8-4.5 2.4-6.1 1.6-1.6 3.7-2.4 6.1-2.4 2.4 0 4.4.8 6.1 2.4 1.7 1.6 2.5 3.6 2.5 6s-.8 4.4-2.5 6c-1.7 1.6-3.7 2.4-6.1 2.4-2.5.2-4.5-.7-6.1-2.3z"/><path opacity=".1" fill="#0046A0" d="M377.1 276.6h-12.7c.3 2.9.4 5.9.4 8.8 0 66.4-71.1 120.3-158.8 120.3-23.5 0-45.8-3.9-65.9-10.8l2.4 13.7c.8 4.5 5.1 8.1 9.7 8.1h202.6c4.5 0 8.8-3.7 9.5-8.1L384 284.7c.7-4.4-2.4-8.1-6.9-8.1z"/><g opacity=".3"><path fill="#FFF" d="M133.7 263.6l1.8 12.1 4.3 28.8 5.2 35.1 4.5 30.1 1.5 10c.2 1.6.4 3.2.7 4.7v.2c.2 1.4 1.9 2.1 3.2 1.8 1.5-.4 2-1.8 1.8-3.2l-1.8-12.1-4.3-28.8-5.2-35.1-4.5-30.1-1.5-10c-.2-1.6-.4-3.2-.7-4.7v-.2c-.2-1.4-1.9-2.1-3.2-1.8-1.5.4-2 1.8-1.8 3.2z"/></g></g><g><path fill="#EB725F" d="M416 174.5c-15.8 0-28.6 12.8-28.6 28.6 0 6.8 2.4 13.4 6.8 18.5l-1.2 14.7 13.7-6.2c3 1 6.2 1.6 9.3 1.6 15.8 0 28.6-12.8 28.6-28.6s-12.8-28.6-28.6-28.6z"/><path fill="#F2F2F2" d="M414 217.8c-.5-.5-.8-1.2-.8-1.9a2.732 2.732 0 0 1 2.7-2.7c.7 0 1.4.3 2 .8.5.5.8 1.2.8 1.9s-.3 1.4-.8 1.9-1.2.8-2 .8-1.3-.3-1.9-.8zm-1.6-32.2h7.2l-1.3 23h-4.5l-1.4-23z"/><path opacity=".1" fill="#0046A0" d="M400.3 218.3c-3.1 0-6.1-.3-9.1-.8.9 1.5 1.8 2.8 2.9 4.1l-1.2 14.7 13.7-6.2c3 1 6.2 1.6 9.3 1.6 15.8 0 28.6-12.8 28.6-28.6 0-3.8-.8-7.5-2.1-10.8-5.6 15.1-22.3 26-42.1 26z"/></g><g><path fill="#F9AB43" d="M122.7 166.8v-27.1c0-3.3-2.7-5.9-5.9-5.9H67.4c-3.3 0-5.9 2.7-5.9 5.9v34.2c0 3.3 2.7 5.9 5.9 5.9H137l-14.3-13z"/><path fill="#FFF" d="M83.8 152.9c0 2.6-1.5 4.7-3.4 4.7s-3.4-2.1-3.4-4.7 1.5-4.7 3.4-4.7 3.4 2.1 3.4 4.7zm22.5 0c0 2.6-1.5 4.7-3.4 4.7s-3.4-2.1-3.4-4.7 1.5-4.7 3.4-4.7 3.4 2.1 3.4 4.7zM83.9 166.1c1.2-1.3 2.8-2.3 4.4-2.8 4.1-1.5 8 .1 11.1 2.8.8.7 2.1-.5 1.2-1.2-3.4-3.1-7.9-4.9-12.4-3.4-2 .7-4 1.8-5.5 3.4-.7.8.5 2.1 1.2 1.2z"/><path opacity=".1" fill="#0046A0" d="M122.7 166.8v-27.1c0-3.3-2.7-5.9-5.9-5.9h-5.1c.9 3.3 1.3 6.6 1.4 10 0 14.4-8.2 27.3-21.1 36.1h45l-14.3-13.1z"/></g><g><path fill="#EB725F" d="M293.7 318.8c-15.9 15.9-15.9 41.6 0 57.5s41.6 15.9 57.5 0 15.9-41.6 0-57.5c-15.9-15.9-41.6-15.9-57.5 0zm52.8 52.8c-13.3 13.3-34.8 13.3-48.1 0-13.3-13.3-13.3-34.8 0-48.1 13.3-13.3 34.8-13.3 48.1 0 13.3 13.3 13.3 34.8 0 48.1z"/><circle opacity=".3" fill="#FFF" cx="322.4" cy="347.5" r="34"/><path fill="#6E7FDD" d="M345 375.2l5.1-5.1 46.1 46.1-5.1 5.1-46.1-46.1z"/><path fill="#EB725F" d="M345 375.2l5.1-5.1 17 17-5.1 5.1-17-17z"/><path fill="#FFF" d="M302.6 333.5c1.3-3.7 4.1-6.7 7.5-8.8 3.4-2.1 7.5-3.2 11.6-3.2s8.1 1.1 11.6 3.2c3.4 2.1 6.2 5.1 7.5 8.8-3.7-1.3-6.9-2.3-10-2.9-3-.6-6-.9-9.1-.9-3.1 0-6.1.3-9.1.9-3.1.7-6.3 1.7-10 2.9z"/></g></svg>